#N canvas 22 161 1237 550 10;
#X obj 144 222 zl nth;
#X obj 35 43 bng 15 250 50 0 empty empty empty 17 7 0 10 -262144 -1
-1;
#X obj 254 221 zl nth;
#X text 97 180 contains list of \; all sample_ids;
#X text 225 177 contains list of \; all sample names;
#X obj 475 224 zl nth;
#X obj 585 221 zl nth;
#X obj 695 222 zl nth;
#X obj 806 221 zl nth;
#X obj 916 221 zl nth;
#X msg 1085 187 3 true;
#X obj 1026 221 zl nth;
#X obj 1137 222 zl nth;
#X msg 867 210 75;
#X msg 948 197 3;
#X msg 1059 183 74;
#X obj 68 21 inlet;
#N canvas 35 153 1161 488 My_RSP_excelParsingInit 0;
#X obj 58 576 outlet ids;
#X obj 356 577 outlet samplenames;
#X obj 659 566 outlet truefalse1;
#X obj 769 566 outlet truefalse2;
#X obj 879 566 outlet truefalse3;
#X obj 989 566 outlet truefalse4;
#X obj 1099 566 outlet truefalse5;
#X obj 1209 566 outlet truefalse6;
#X obj 1319 566 outlet truefalse7;
#X obj 1429 566 outlet truefalse8;
#X obj 58 18 inlet init;
#X obj 58 219 textfile, f 13;
#X msg 152 107 rewind;
#X msg 341 76 clear;
#X msg 247 103 read postgresql_samples.csv;
#X obj 530 95 s clearList;
#X obj 58 166 until;
#X obj 436 94 s setZlSize;
#X obj 58 257 list-drip;
#X text 161 246 some lines are output as lists \, some are not. \;
We need to serialize the lists with drip \; in order to route them
;
#X msg 436 74 zlmaxsize 1300;
#X msg 530 74 zlclear;
#X obj 58 49 t b b b b b b b, f 95;
#X obj 625 77 s clearListBang;
#X text 163 216 read csv file specified above;
#X obj 58 290 route float symbol, f 31;
#X obj 241 324 print ERROR while routing contents of textfile;
#X obj 149 319 select false;
#X msg 149 344 symbol false;
#X obj 704 413 counter 1 8;
#X obj 659 384 t s b, f 8;
#X obj 659 439 pack s f;
#X msg 659 461 \$2 \$1;
#N canvas 0 50 450 300 listPopu1 0;
#X obj 79 25 inlet;
#X obj 79 244 outlet;
#X obj 106 200 r clearList;
#X obj 98 180 r setZlSize;
#X obj 79 107 list prepend;
#X obj 79 129 t a a;
#X obj 148 84 r clearListBang;
#X connect 0 0 4 0;
#X connect 2 0 1 0;
#X connect 3 0 1 0;
#X connect 4 0 5 0;
#X connect 5 0 1 0;
#X connect 5 1 4 1;
#X connect 6 0 4 1;
#X restore 659 514 pd listPopu1;
#N canvas 0 50 450 300 listPopu2 0;
#X obj 79 25 inlet;
#X obj 79 244 outlet;
#X obj 106 200 r clearList;
#X obj 98 180 r setZlSize;
#X obj 79 107 list prepend;
#X obj 79 129 t a a;
#X obj 148 84 r clearListBang;
#X connect 0 0 4 0;
#X connect 2 0 1 0;
#X connect 3 0 1 0;
#X connect 4 0 5 0;
#X connect 5 0 1 0;
#X connect 5 1 4 1;
#X connect 6 0 4 1;
#X restore 750 513 pd listPopu2;
#N canvas 0 50 450 300 listPopu3 0;
#X obj 79 25 inlet;
#X obj 79 244 outlet;
#X obj 106 200 r clearList;
#X obj 98 180 r setZlSize;
#X obj 79 107 list prepend;
#X obj 79 129 t a a;
#X obj 148 84 r clearListBang;
#X connect 0 0 4 0;
#X connect 2 0 1 0;
#X connect 3 0 1 0;
#X connect 4 0 5 0;
#X connect 5 0 1 0;
#X connect 5 1 4 1;
#X connect 6 0 4 1;
#X restore 840 513 pd listPopu3;
#N canvas 0 50 450 300 listPopu4 0;
#X obj 79 25 inlet;
#X obj 79 244 outlet;
#X obj 106 200 r clearList;
#X obj 98 180 r setZlSize;
#X obj 79 107 list prepend;
#X obj 79 129 t a a;
#X obj 148 84 r clearListBang;
#X connect 0 0 4 0;
#X connect 2 0 1 0;
#X connect 3 0 1 0;
#X connect 4 0 5 0;
#X connect 5 0 1 0;
#X connect 5 1 4 1;
#X connect 6 0 4 1;
#X restore 941 513 pd listPopu4;
#N canvas 0 50 450 300 listPopu5 0;
#X obj 79 25 inlet;
#X obj 79 244 outlet;
#X obj 106 200 r clearList;
#X obj 98 180 r setZlSize;
#X obj 79 107 list prepend;
#X obj 79 129 t a a;
#X obj 148 84 r clearListBang;
#X connect 0 0 4 0;
#X connect 2 0 1 0;
#X connect 3 0 1 0;
#X connect 4 0 5 0;
#X connect 5 0 1 0;
#X connect 5 1 4 1;
#X connect 6 0 4 1;
#X restore 1041 513 pd listPopu5;
#N canvas 0 50 450 300 listPopu6 0;
#X obj 79 25 inlet;
#X obj 79 244 outlet;
#X obj 106 200 r clearList;
#X obj 98 180 r setZlSize;
#X obj 79 107 list prepend;
#X obj 79 129 t a a;
#X obj 148 84 r clearListBang;
#X connect 0 0 4 0;
#X connect 2 0 1 0;
#X connect 3 0 1 0;
#X connect 4 0 5 0;
#X connect 5 0 1 0;
#X connect 5 1 4 1;
#X connect 6 0 4 1;
#X restore 1141 513 pd listPopu6;
#N canvas 0 50 450 300 listPopu7 0;
#X obj 79 25 inlet;
#X obj 79 244 outlet;
#X obj 106 200 r clearList;
#X obj 98 180 r setZlSize;
#X obj 79 107 list prepend;
#X obj 79 129 t a a;
#X obj 148 84 r clearListBang;
#X connect 0 0 4 0;
#X connect 2 0 1 0;
#X connect 3 0 1 0;
#X connect 4 0 5 0;
#X connect 5 0 1 0;
#X connect 5 1 4 1;
#X connect 6 0 4 1;
#X restore 1241 513 pd listPopu7;
#N canvas 0 50 450 300 listPopu8 0;
#X obj 79 25 inlet;
#X obj 79 244 outlet;
#X obj 106 200 r clearList;
#X obj 98 180 r setZlSize;
#X obj 79 107 list prepend;
#X obj 79 129 t a a;
#X obj 148 84 r clearListBang;
#X connect 0 0 4 0;
#X connect 2 0 1 0;
#X connect 3 0 1 0;
#X connect 4 0 5 0;
#X connect 5 0 1 0;
#X connect 5 1 4 1;
#X connect 6 0 4 1;
#X restore 1331 511 pd listPopu8;
#X obj 1430 511 print ERROR while routing 'false' init values from
excel table;
#X obj 659 483 route 1 2 3 4 5 6 7 8, f 114;
#X msg 319 395 \$1;
#X obj 396 544 r clearList;
#X obj 388 524 r setZlSize;
#X obj 319 422 list prepend;
#X obj 319 472 list split 10;
#X text 403 466 cut the first 10 elements of the list \; as they are
just the headings of the \; excel table.;
#X obj 319 446 t a a;
#X obj 400 387 r clearListBang;
#X obj 97 537 r clearList;
#X obj 87 518 r setZlSize;
#X obj 58 420 list prepend;
#X text 138 427 build a list from stream of \; single excel entries
;
#X obj 58 442 t a a;
#X obj 127 395 r clearListBang;
#X text 249 285 distinguish between 'false' and sample name/headers
(sample_id \, sample_name \, is_playingSP1...) from excel \; table.
;
#X connect 10 0 22 0;
#X connect 11 0 18 0;
#X connect 11 1 16 1;
#X connect 12 0 11 0;
#X connect 13 0 11 0;
#X connect 14 0 11 0;
#X connect 16 0 11 0;
#X connect 18 0 25 0;
#X connect 20 0 17 0;
#X connect 21 0 15 0;
#X connect 22 0 16 0;
#X connect 22 1 12 0;
#X connect 22 2 14 0;
#X connect 22 3 13 0;
#X connect 22 4 20 0;
#X connect 22 5 21 0;
#X connect 22 6 23 0;
#X connect 25 0 53 0;
#X connect 25 1 27 0;
#X connect 25 2 26 0;
#X connect 27 0 28 0;
#X connect 27 1 43 0;
#X connect 28 0 30 0;
#X connect 29 0 31 1;
#X connect 30 0 31 0;
#X connect 30 1 29 0;
#X connect 31 0 32 0;
#X connect 32 0 42 0;
#X connect 33 0 2 0;
#X connect 34 0 3 0;
#X connect 35 0 4 0;
#X connect 36 0 5 0;
#X connect 37 0 6 0;
#X connect 38 0 7 0;
#X connect 39 0 8 0;
#X connect 40 0 9 0;
#X connect 42 0 33 0;
#X connect 42 1 34 0;
#X connect 42 2 35 0;
#X connect 42 3 36 0;
#X connect 42 4 37 0;
#X connect 42 5 38 0;
#X connect 42 6 39 0;
#X connect 42 7 40 0;
#X connect 42 8 41 0;
#X connect 43 0 46 0;
#X connect 44 0 1 0;
#X connect 45 0 1 0;
#X connect 46 0 49 0;
#X connect 47 1 1 0;
#X connect 49 0 47 0;
#X connect 49 1 46 1;
#X connect 50 0 46 1;
#X connect 51 0 0 0;
#X connect 52 0 0 0;
#X connect 53 0 55 0;
#X connect 55 0 0 0;
#X connect 55 1 53 1;
#X connect 56 0 53 1;
#X restore 144 79 pd My_RSP_excelParsingInit;
#X f 166;
#X obj 364 222 zl nth;
#X text 369 179 isPLaying1;
#X text 484 187 isPLaying2;
#X text 594 190 isPLaying3;
#X text 701 190 isPLaying4;
#X text 810 189 isPLaying5;
#X text 910 179 isPLaying6;
#X text 1032 159 isPLaying7;
#X text 1143 187 isPLaying8;
#X obj 144 35 r excelParseInitBang;
#X connect 13 0 8 1;
#X connect 14 0 9 1;
#X connect 15 0 11 1;
#X connect 17 0 0 0;
#X connect 17 1 2 0;
#X connect 17 2 18 0;
#X connect 17 3 5 0;
#X connect 17 4 6 0;
#X connect 17 5 7 0;
#X connect 17 6 8 0;
#X connect 17 7 9 0;
#X connect 17 8 11 0;
#X connect 17 9 12 0;
#X connect 27 0 17 0;
