#N canvas 130 117 1237 550 10;
#X obj 144 442 zl nth;
#X text 97 400 contains list of \; all sample_ids;
#X text 305 427 contains list of \; all sample names;
#X obj 339 1056 zl nth;
#X obj 424 1050 zl nth;
#X obj 509 1049 zl nth;
#X obj 594 1048 zl nth;
#X obj 679 1050 zl nth;
#X obj 764 1048 zl nth;
#X obj 849 1046 zl nth;
#N canvas 35 153 1161 488 My_RSP_excelParsingInit 0;
#X obj 58 576 outlet ids;
#X obj 356 577 outlet samplenames;
#X obj 659 566 outlet truefalse1;
#X obj 769 566 outlet truefalse2;
#X obj 879 566 outlet truefalse3;
#X obj 989 566 outlet truefalse4;
#X obj 1099 566 outlet truefalse5;
#X obj 1209 566 outlet truefalse6;
#X obj 1319 566 outlet truefalse7;
#X obj 1429 566 outlet truefalse8;
#X obj 58 18 inlet init;
#X obj 58 219 textfile, f 13;
#X msg 152 107 rewind;
#X msg 341 76 clear;
#X msg 247 103 read postgresql_samples.csv;
#X obj 530 103 s clearList;
#X obj 58 166 until;
#X obj 436 102 s setZlSize;
#X obj 58 257 list-drip;
#X text 161 246 some lines are output as lists \, some are not. \;
We need to serialize the lists with drip \; in order to route them
;
#X msg 436 82 zlmaxsize 1300;
#X msg 530 82 zlclear;
#X obj 625 85 s clearListBang;
#X text 163 216 read csv file specified above;
#X obj 58 290 route float symbol, f 31;
#X obj 241 324 print ERROR while routing contents of textfile;
#X obj 149 319 select false;
#X msg 149 344 symbol false;
#X obj 704 413 counter 1 8;
#X obj 659 384 t s b, f 8;
#X obj 659 439 pack s f;
#X msg 659 461 \$2 \$1;
#N canvas 0 50 450 300 listPopu1 0;
#X obj 79 25 inlet;
#X obj 79 244 outlet;
#X obj 106 200 r clearList;
#X obj 98 180 r setZlSize;
#X obj 79 107 list prepend;
#X obj 79 129 t a a;
#X obj 148 84 r clearListBang;
#X connect 0 0 4 0;
#X connect 2 0 1 0;
#X connect 3 0 1 0;
#X connect 4 0 5 0;
#X connect 5 0 1 0;
#X connect 5 1 4 1;
#X connect 6 0 4 1;
#X restore 659 514 pd listPopu1;
#N canvas 0 50 450 300 listPopu2 0;
#X obj 79 25 inlet;
#X obj 79 244 outlet;
#X obj 106 200 r clearList;
#X obj 98 180 r setZlSize;
#X obj 79 107 list prepend;
#X obj 79 129 t a a;
#X obj 148 84 r clearListBang;
#X connect 0 0 4 0;
#X connect 2 0 1 0;
#X connect 3 0 1 0;
#X connect 4 0 5 0;
#X connect 5 0 1 0;
#X connect 5 1 4 1;
#X connect 6 0 4 1;
#X restore 750 513 pd listPopu2;
#N canvas 0 50 450 300 listPopu3 0;
#X obj 79 25 inlet;
#X obj 79 244 outlet;
#X obj 106 200 r clearList;
#X obj 98 180 r setZlSize;
#X obj 79 107 list prepend;
#X obj 79 129 t a a;
#X obj 148 84 r clearListBang;
#X connect 0 0 4 0;
#X connect 2 0 1 0;
#X connect 3 0 1 0;
#X connect 4 0 5 0;
#X connect 5 0 1 0;
#X connect 5 1 4 1;
#X connect 6 0 4 1;
#X restore 840 513 pd listPopu3;
#N canvas 0 50 450 300 listPopu4 0;
#X obj 79 25 inlet;
#X obj 79 244 outlet;
#X obj 106 200 r clearList;
#X obj 98 180 r setZlSize;
#X obj 79 107 list prepend;
#X obj 79 129 t a a;
#X obj 148 84 r clearListBang;
#X connect 0 0 4 0;
#X connect 2 0 1 0;
#X connect 3 0 1 0;
#X connect 4 0 5 0;
#X connect 5 0 1 0;
#X connect 5 1 4 1;
#X connect 6 0 4 1;
#X restore 941 513 pd listPopu4;
#N canvas 0 50 450 300 listPopu5 0;
#X obj 79 25 inlet;
#X obj 79 244 outlet;
#X obj 106 200 r clearList;
#X obj 98 180 r setZlSize;
#X obj 79 107 list prepend;
#X obj 79 129 t a a;
#X obj 148 84 r clearListBang;
#X connect 0 0 4 0;
#X connect 2 0 1 0;
#X connect 3 0 1 0;
#X connect 4 0 5 0;
#X connect 5 0 1 0;
#X connect 5 1 4 1;
#X connect 6 0 4 1;
#X restore 1041 513 pd listPopu5;
#N canvas 0 50 450 300 listPopu6 0;
#X obj 79 25 inlet;
#X obj 79 244 outlet;
#X obj 106 200 r clearList;
#X obj 98 180 r setZlSize;
#X obj 79 107 list prepend;
#X obj 79 129 t a a;
#X obj 148 84 r clearListBang;
#X connect 0 0 4 0;
#X connect 2 0 1 0;
#X connect 3 0 1 0;
#X connect 4 0 5 0;
#X connect 5 0 1 0;
#X connect 5 1 4 1;
#X connect 6 0 4 1;
#X restore 1141 513 pd listPopu6;
#N canvas 0 50 450 300 listPopu7 0;
#X obj 79 25 inlet;
#X obj 79 244 outlet;
#X obj 106 200 r clearList;
#X obj 98 180 r setZlSize;
#X obj 79 107 list prepend;
#X obj 79 129 t a a;
#X obj 148 84 r clearListBang;
#X connect 0 0 4 0;
#X connect 2 0 1 0;
#X connect 3 0 1 0;
#X connect 4 0 5 0;
#X connect 5 0 1 0;
#X connect 5 1 4 1;
#X connect 6 0 4 1;
#X restore 1241 513 pd listPopu7;
#N canvas 0 50 450 300 listPopu8 0;
#X obj 79 25 inlet;
#X obj 79 244 outlet;
#X obj 106 200 r clearList;
#X obj 98 180 r setZlSize;
#X obj 79 107 list prepend;
#X obj 79 129 t a a;
#X obj 148 84 r clearListBang;
#X connect 0 0 4 0;
#X connect 2 0 1 0;
#X connect 3 0 1 0;
#X connect 4 0 5 0;
#X connect 5 0 1 0;
#X connect 5 1 4 1;
#X connect 6 0 4 1;
#X restore 1331 511 pd listPopu8;
#X obj 1430 511 print ERROR while routing 'false' init values from
excel table;
#X obj 659 483 route 1 2 3 4 5 6 7 8, f 114;
#X msg 319 395 \$1;
#X obj 396 534 r clearList;
#X obj 388 514 r setZlSize;
#X obj 319 422 list prepend;
#X obj 319 472 list split 10;
#X text 403 466 cut the first 10 elements of the list \; as they are
just the headings of the \; excel table.;
#X obj 319 446 t a a;
#X obj 400 387 r clearListBang;
#X obj 97 537 r clearList;
#X obj 87 518 r setZlSize;
#X obj 58 420 list prepend;
#X text 138 427 build a list from stream of \; single excel entries
;
#X obj 58 442 t a a;
#X obj 127 395 r clearListBang;
#X text 249 285 distinguish between 'false' and sample name/headers
(sample_id \, sample_name \, is_playingSP1...) from excel \; table.
;
#X obj 58 49 t b b b b b b b, f 95;
#X connect 10 0 57 0;
#X connect 11 0 18 0;
#X connect 11 1 16 1;
#X connect 12 0 11 0;
#X connect 13 0 11 0;
#X connect 14 0 11 0;
#X connect 16 0 11 0;
#X connect 18 0 24 0;
#X connect 20 0 17 0;
#X connect 21 0 15 0;
#X connect 24 0 52 0;
#X connect 24 1 26 0;
#X connect 24 2 25 0;
#X connect 26 0 27 0;
#X connect 26 1 42 0;
#X connect 27 0 29 0;
#X connect 28 0 30 1;
#X connect 29 0 30 0;
#X connect 29 1 28 0;
#X connect 30 0 31 0;
#X connect 31 0 41 0;
#X connect 32 0 2 0;
#X connect 33 0 3 0;
#X connect 34 0 4 0;
#X connect 35 0 5 0;
#X connect 36 0 6 0;
#X connect 37 0 7 0;
#X connect 38 0 8 0;
#X connect 39 0 9 0;
#X connect 41 0 32 0;
#X connect 41 1 33 0;
#X connect 41 2 34 0;
#X connect 41 3 35 0;
#X connect 41 4 36 0;
#X connect 41 5 37 0;
#X connect 41 6 38 0;
#X connect 41 7 39 0;
#X connect 41 8 40 0;
#X connect 42 0 45 0;
#X connect 43 0 1 0;
#X connect 44 0 1 0;
#X connect 45 0 48 0;
#X connect 46 1 1 0;
#X connect 48 0 46 0;
#X connect 48 1 45 1;
#X connect 49 0 45 1;
#X connect 50 0 0 0;
#X connect 51 0 0 0;
#X connect 52 0 54 0;
#X connect 54 0 0 0;
#X connect 54 1 52 1;
#X connect 55 0 52 1;
#X connect 57 0 16 0;
#X connect 57 1 12 0;
#X connect 57 2 14 0;
#X connect 57 3 13 0;
#X connect 57 4 20 0;
#X connect 57 5 21 0;
#X connect 57 6 22 0;
#X restore 602 290 pd My_RSP_excelParsingInit;
#X f 166;
#X obj 254 1052 zl nth;
#X text 336 1081 isPLaying2;
#X text 417 1081 isPLaying3;
#X text 506 1082 isPLaying4;
#X text 591 1081 isPLaying5;
#X text 681 1081 isPLaying6;
#X text 760 1080 isPLaying7;
#X text 845 1078 isPLaying8;
#X obj 602 239 r excelParseInitBang;
#X obj 12 26 inlet startS1;
#X obj 112 26 inlet selS1;
#X obj 223 28 inlet startS2;
#X obj 323 28 inlet selS2;
#X obj 444 27 inlet startS3;
#X obj 530 27 inlet selS3;
#X obj 664 25 inlet startS4;
#X obj 761 25 inlet selS4;
#X obj 894 25 inlet startS5;
#X obj 994 25 inlet selS5;
#X obj 1145 25 inlet startS6;
#X obj 1245 25 inlet selS6;
#X obj 1377 25 inlet startS7;
#X obj 1474 25 inlet selS7;
#X obj 1601 24 inlet startS8;
#X obj 1698 24 inlet selS8;
#X obj 342 167 s inletId;
#X obj 323 197 s nameIdQuery;
#X obj 254 451 zl sub;
#X obj 287 474 print occ;
#X obj 287 496 print pos;
#X obj 254 361 r nameIdQuery;
#X symbolatom 328 393 30 0 0 0 - - -;
#X obj 254 396 t b s, f 6;
#X obj 282 555 r inletId;
#X obj 254 745 route 1 2 3 4 5 6 7 8, f 114;
#X msg 342 146 2;
#X msg 372 998 \$1 true;
#X obj 339 972 t b f, f 6;
#X text 251 1081 isPlaying1;
#X msg 287 999 \$1 true;
#X obj 254 976 t b f, f 6;
#X msg 457 1003 \$1 true;
#X obj 424 979 t b f, f 6;
#X msg 542 1004 \$1 true;
#X obj 509 980 t b f, f 6;
#X msg 627 1006 \$1 true;
#X obj 594 975 t b f, f 6;
#X msg 712 1008 \$1 true;
#X obj 679 977 t b f, f 6;
#X msg 797 1006 \$1 true;
#X obj 764 975 t b f, f 6;
#X msg 882 1004 \$1 true;
#X obj 849 973 t b f, f 6;
#X obj 218 1105 print l1;
#X obj 274 1105 print r1;
#X obj 340 1111 print l2;
#X obj 398 1112 print r2;
#X obj 459 1111 print l3;
#X obj 517 1112 print r3;
#X obj 580 1111 print l4;
#X obj 638 1112 print r4;
#X obj 697 1112 print l5;
#X obj 755 1113 print r5;
#X obj 817 1112 print l6;
#X obj 875 1113 print r6;
#X obj 937 1112 print l7;
#X obj 995 1113 print r7;
#X obj 1057 1112 print l8;
#X obj 1115 1113 print r8;
#X obj 223 56 t s b b;
#X obj 260 102 s queryId;
#X msg 262 81 0;
#X obj 254 623 pack f f f;
#X obj 311 586 r queryId;
#X text 377 585 queryId = 0 = starting a sample \; queryId = 1 = selecting
a sample = harmony detection;
#X text 315 643 \$3 = queryId \; \$2 = inletId \; \$1 = sampleId from
list;
#X obj 282 680 print inletId und SampleId und queryId;
#X msg 254 653 \$2 \$1 \$3;
#X msg 339 782 \$2 \$1;
#X obj 339 844 route 0 1;
#X msg 254 781 \$2 \$1;
#X text 155 777 \$2 = queryId \; \$1 = sampleId \;;
#X obj 254 843 route 0 1;
#X msg 424 782 \$2 \$1;
#X obj 424 844 route 0 1;
#X msg 509 781 \$2 \$1;
#X obj 509 842 route 0 1;
#X msg 594 780 \$2 \$1;
#X obj 594 841 route 0 1;
#X msg 679 778 \$2 \$1;
#X obj 679 839 route 0 1;
#X msg 764 776 \$2 \$1;
#X obj 764 836 route 0 1;
#X msg 849 777 \$2 \$1;
#X obj 849 837 route 0 1;
#X text 96 828 0 = starting a sample \; > output id of starting \;
sample. 1 = selecting a sample \; > output id of selected sample and
do harmony \; detection;
#X obj 323 56 t s b b;
#X obj 360 104 s queryId;
#X msg 362 83 1;
#X obj 549 172 s inletId;
#X obj 530 197 s nameIdQuery;
#X obj 444 61 t s b b;
#X obj 481 107 s queryId;
#X msg 483 86 0;
#X obj 530 61 t s b b;
#X obj 567 109 s queryId;
#X msg 569 88 1;
#X msg 549 151 3;
#X obj 780 172 s inletId;
#X obj 761 197 s nameIdQuery;
#X obj 664 61 t s b b;
#X obj 701 107 s queryId;
#X msg 703 86 0;
#X obj 761 61 t s b b;
#X obj 798 109 s queryId;
#X msg 800 88 1;
#X msg 780 151 4;
#X obj 1013 172 s inletId;
#X obj 994 197 s nameIdQuery;
#X obj 894 61 t s b b;
#X obj 931 107 s queryId;
#X msg 933 86 0;
#X obj 994 61 t s b b;
#X obj 1031 109 s queryId;
#X msg 1033 88 1;
#X msg 1013 151 5;
#X obj 1264 172 s inletId;
#X obj 1245 197 s nameIdQuery;
#X obj 1145 61 t s b b;
#X obj 1182 107 s queryId;
#X msg 1184 86 0;
#X obj 1245 61 t s b b;
#X obj 1282 109 s queryId;
#X msg 1284 88 1;
#X msg 1264 151 6;
#X obj 1493 171 s inletId;
#X obj 1474 196 s nameIdQuery;
#X obj 1377 60 t s b b;
#X obj 1414 106 s queryId;
#X msg 1416 85 0;
#X obj 1474 60 t s b b;
#X obj 1511 108 s queryId;
#X msg 1513 87 1;
#X msg 1493 150 7;
#X obj 1777 172 s inletId;
#X obj 1698 197 s nameIdQuery;
#X obj 1601 61 t s b b;
#X obj 1638 107 s queryId;
#X msg 1640 86 0;
#X obj 1698 61 t s b b;
#X obj 1795 109 s queryId;
#X msg 1797 88 1;
#X msg 1777 151 8;
#X obj 131 176 s inletId;
#X obj 112 201 s nameIdQuery;
#X obj 12 65 t s b b;
#X obj 49 111 s queryId;
#X msg 51 90 0;
#X obj 112 65 t s b b;
#X obj 149 113 s queryId;
#X msg 151 92 1;
#X msg 131 155 1;
#X connect 3 0 66 0;
#X connect 3 1 67 0;
#X connect 4 0 68 0;
#X connect 4 1 69 0;
#X connect 5 0 70 0;
#X connect 5 1 71 0;
#X connect 6 0 72 0;
#X connect 6 1 73 0;
#X connect 7 0 74 0;
#X connect 7 1 75 0;
#X connect 8 0 76 0;
#X connect 8 1 77 0;
#X connect 9 0 78 0;
#X connect 9 1 79 0;
#X connect 10 0 0 0;
#X connect 10 1 38 0;
#X connect 10 2 11 0;
#X connect 10 3 3 0;
#X connect 10 4 4 0;
#X connect 10 5 5 0;
#X connect 10 6 6 0;
#X connect 10 7 7 0;
#X connect 10 8 8 0;
#X connect 10 9 9 0;
#X connect 11 0 64 0;
#X connect 11 1 65 0;
#X connect 19 0 10 0;
#X connect 20 0 166 0;
#X connect 21 0 169 0;
#X connect 22 0 80 0;
#X connect 23 0 107 0;
#X connect 24 0 112 0;
#X connect 25 0 115 0;
#X connect 26 0 121 0;
#X connect 27 0 124 0;
#X connect 28 0 130 0;
#X connect 29 0 133 0;
#X connect 30 0 139 0;
#X connect 31 0 142 0;
#X connect 32 0 148 0;
#X connect 33 0 151 0;
#X connect 34 0 157 0;
#X connect 35 0 160 0;
#X connect 38 0 40 0;
#X connect 38 0 83 0;
#X connect 38 1 39 0;
#X connect 41 0 42 0;
#X connect 41 0 43 0;
#X connect 43 0 38 0;
#X connect 43 1 38 1;
#X connect 44 0 83 1;
#X connect 45 0 91 0;
#X connect 45 1 89 0;
#X connect 45 2 94 0;
#X connect 45 3 96 0;
#X connect 45 4 98 0;
#X connect 45 5 100 0;
#X connect 45 6 102 0;
#X connect 45 7 104 0;
#X connect 46 0 36 0;
#X connect 47 0 3 1;
#X connect 48 0 3 0;
#X connect 48 1 47 0;
#X connect 50 0 11 1;
#X connect 51 0 11 0;
#X connect 51 1 50 0;
#X connect 52 0 4 1;
#X connect 53 0 4 0;
#X connect 53 1 52 0;
#X connect 54 0 5 1;
#X connect 55 0 5 0;
#X connect 55 1 54 0;
#X connect 56 0 6 1;
#X connect 57 0 6 0;
#X connect 57 1 56 0;
#X connect 58 0 7 1;
#X connect 59 0 7 0;
#X connect 59 1 58 0;
#X connect 60 0 8 1;
#X connect 61 0 8 0;
#X connect 61 1 60 0;
#X connect 62 0 9 1;
#X connect 63 0 9 0;
#X connect 63 1 62 0;
#X connect 80 0 37 0;
#X connect 80 1 46 0;
#X connect 80 2 82 0;
#X connect 82 0 81 0;
#X connect 83 0 88 0;
#X connect 84 0 83 2;
#X connect 88 0 87 0;
#X connect 88 0 45 0;
#X connect 89 0 90 0;
#X connect 90 0 48 0;
#X connect 91 0 93 0;
#X connect 93 0 51 0;
#X connect 94 0 95 0;
#X connect 95 0 53 0;
#X connect 96 0 97 0;
#X connect 97 0 55 0;
#X connect 98 0 99 0;
#X connect 99 0 57 0;
#X connect 100 0 101 0;
#X connect 101 0 59 0;
#X connect 102 0 103 0;
#X connect 103 0 61 0;
#X connect 104 0 105 0;
#X connect 105 0 63 0;
#X connect 107 0 37 0;
#X connect 107 1 46 0;
#X connect 107 2 109 0;
#X connect 109 0 108 0;
#X connect 112 0 111 0;
#X connect 112 1 118 0;
#X connect 112 2 114 0;
#X connect 114 0 113 0;
#X connect 115 0 111 0;
#X connect 115 1 118 0;
#X connect 115 2 117 0;
#X connect 117 0 116 0;
#X connect 118 0 110 0;
#X connect 121 0 120 0;
#X connect 121 1 127 0;
#X connect 121 2 123 0;
#X connect 123 0 122 0;
#X connect 124 0 120 0;
#X connect 124 1 127 0;
#X connect 124 2 126 0;
#X connect 126 0 125 0;
#X connect 127 0 119 0;
#X connect 130 0 129 0;
#X connect 130 1 136 0;
#X connect 130 2 132 0;
#X connect 132 0 131 0;
#X connect 133 0 129 0;
#X connect 133 1 136 0;
#X connect 133 2 135 0;
#X connect 135 0 134 0;
#X connect 136 0 128 0;
#X connect 139 0 138 0;
#X connect 139 1 145 0;
#X connect 139 2 141 0;
#X connect 141 0 140 0;
#X connect 142 0 138 0;
#X connect 142 1 145 0;
#X connect 142 2 144 0;
#X connect 144 0 143 0;
#X connect 145 0 137 0;
#X connect 148 0 147 0;
#X connect 148 1 154 0;
#X connect 148 2 150 0;
#X connect 150 0 149 0;
#X connect 151 0 147 0;
#X connect 151 1 154 0;
#X connect 151 2 153 0;
#X connect 153 0 152 0;
#X connect 154 0 146 0;
#X connect 157 0 156 0;
#X connect 157 1 163 0;
#X connect 157 2 159 0;
#X connect 159 0 158 0;
#X connect 160 0 156 0;
#X connect 160 1 163 0;
#X connect 160 2 162 0;
#X connect 162 0 161 0;
#X connect 163 0 155 0;
#X connect 166 0 165 0;
#X connect 166 1 172 0;
#X connect 166 2 168 0;
#X connect 168 0 167 0;
#X connect 169 0 165 0;
#X connect 169 1 172 0;
#X connect 169 2 171 0;
#X connect 171 0 170 0;
#X connect 172 0 164 0;
