#N canvas -140 95 1392 620 10;
#X obj 64 442 zl nth;
#X text 17 400 contains list of \; all sample_ids;
#X text 305 467 contains list of \; all sample names;
#N canvas 35 62 1161 579 My_RSP_excelParsingInit 0;
#X obj 58 576 outlet ids;
#X obj 356 577 outlet samplenames;
#X obj 659 566 outlet truefalse1;
#X obj 769 566 outlet truefalse2;
#X obj 879 566 outlet truefalse3;
#X obj 989 566 outlet truefalse4;
#X obj 1099 566 outlet truefalse5;
#X obj 1209 566 outlet truefalse6;
#X obj 1319 566 outlet truefalse7;
#X obj 1429 566 outlet truefalse8;
#X obj 58 18 inlet init;
#X obj 58 219 textfile, f 13;
#X msg 152 127 rewind;
#X msg 341 96 clear;
#X msg 247 123 read postgresql_samples.csv;
#X obj 530 123 s clearList;
#X obj 58 166 until;
#X obj 436 122 s setZlSize;
#X obj 58 257 list-drip;
#X text 161 246 some lines are output as lists \, some are not. \;
We need to serialize the lists with drip \; in order to route them
;
#X msg 530 102 zlclear;
#X obj 625 105 s clearListBang;
#X text 163 216 read csv file specified above;
#X obj 58 290 route float symbol, f 31;
#X obj 149 319 select false;
#X msg 149 344 symbol false;
#X obj 704 413 counter 1 8;
#X obj 659 384 t s b, f 8;
#X obj 659 439 pack s f;
#X msg 659 461 \$2 \$1;
#N canvas 0 50 450 300 listPopu1 0;
#X obj 79 25 inlet;
#X obj 79 244 outlet;
#X obj 106 200 r clearList;
#X obj 98 180 r setZlSize;
#X obj 79 107 list prepend;
#X obj 79 129 t a a;
#X obj 148 84 r clearListBang;
#X connect 0 0 4 0;
#X connect 2 0 1 0;
#X connect 3 0 1 0;
#X connect 4 0 5 0;
#X connect 5 0 1 0;
#X connect 5 1 4 1;
#X connect 6 0 4 1;
#X restore 659 514 pd listPopu1;
#N canvas 0 50 450 300 listPopu2 0;
#X obj 79 25 inlet;
#X obj 79 244 outlet;
#X obj 106 200 r clearList;
#X obj 98 180 r setZlSize;
#X obj 79 107 list prepend;
#X obj 79 129 t a a;
#X obj 148 84 r clearListBang;
#X connect 0 0 4 0;
#X connect 2 0 1 0;
#X connect 3 0 1 0;
#X connect 4 0 5 0;
#X connect 5 0 1 0;
#X connect 5 1 4 1;
#X connect 6 0 4 1;
#X restore 750 513 pd listPopu2;
#N canvas 0 50 450 300 listPopu3 0;
#X obj 79 25 inlet;
#X obj 79 244 outlet;
#X obj 106 200 r clearList;
#X obj 98 180 r setZlSize;
#X obj 79 107 list prepend;
#X obj 79 129 t a a;
#X obj 148 84 r clearListBang;
#X connect 0 0 4 0;
#X connect 2 0 1 0;
#X connect 3 0 1 0;
#X connect 4 0 5 0;
#X connect 5 0 1 0;
#X connect 5 1 4 1;
#X connect 6 0 4 1;
#X restore 840 513 pd listPopu3;
#N canvas 0 50 450 300 listPopu4 0;
#X obj 79 25 inlet;
#X obj 79 244 outlet;
#X obj 106 200 r clearList;
#X obj 98 180 r setZlSize;
#X obj 79 107 list prepend;
#X obj 79 129 t a a;
#X obj 148 84 r clearListBang;
#X connect 0 0 4 0;
#X connect 2 0 1 0;
#X connect 3 0 1 0;
#X connect 4 0 5 0;
#X connect 5 0 1 0;
#X connect 5 1 4 1;
#X connect 6 0 4 1;
#X restore 941 513 pd listPopu4;
#N canvas 0 50 450 300 listPopu5 0;
#X obj 79 25 inlet;
#X obj 79 244 outlet;
#X obj 106 200 r clearList;
#X obj 98 180 r setZlSize;
#X obj 79 107 list prepend;
#X obj 79 129 t a a;
#X obj 148 84 r clearListBang;
#X connect 0 0 4 0;
#X connect 2 0 1 0;
#X connect 3 0 1 0;
#X connect 4 0 5 0;
#X connect 5 0 1 0;
#X connect 5 1 4 1;
#X connect 6 0 4 1;
#X restore 1041 513 pd listPopu5;
#N canvas 0 50 450 300 listPopu6 0;
#X obj 79 25 inlet;
#X obj 79 244 outlet;
#X obj 106 200 r clearList;
#X obj 98 180 r setZlSize;
#X obj 79 107 list prepend;
#X obj 79 129 t a a;
#X obj 148 84 r clearListBang;
#X connect 0 0 4 0;
#X connect 2 0 1 0;
#X connect 3 0 1 0;
#X connect 4 0 5 0;
#X connect 5 0 1 0;
#X connect 5 1 4 1;
#X connect 6 0 4 1;
#X restore 1141 513 pd listPopu6;
#N canvas 0 50 450 300 listPopu7 0;
#X obj 79 25 inlet;
#X obj 79 244 outlet;
#X obj 106 200 r clearList;
#X obj 98 180 r setZlSize;
#X obj 79 107 list prepend;
#X obj 79 129 t a a;
#X obj 148 84 r clearListBang;
#X connect 0 0 4 0;
#X connect 2 0 1 0;
#X connect 3 0 1 0;
#X connect 4 0 5 0;
#X connect 5 0 1 0;
#X connect 5 1 4 1;
#X connect 6 0 4 1;
#X restore 1241 513 pd listPopu7;
#N canvas 0 50 450 300 listPopu8 0;
#X obj 79 25 inlet;
#X obj 79 244 outlet;
#X obj 106 200 r clearList;
#X obj 98 180 r setZlSize;
#X obj 79 107 list prepend;
#X obj 79 129 t a a;
#X obj 148 84 r clearListBang;
#X connect 0 0 4 0;
#X connect 2 0 1 0;
#X connect 3 0 1 0;
#X connect 4 0 5 0;
#X connect 5 0 1 0;
#X connect 5 1 4 1;
#X connect 6 0 4 1;
#X restore 1331 511 pd listPopu8;
#X obj 1430 511 print ERROR while routing 'false' init values from
excel table;
#X obj 659 483 route 1 2 3 4 5 6 7 8, f 114;
#X msg 319 395 \$1;
#X obj 396 534 r clearList;
#X obj 388 514 r setZlSize;
#X obj 319 422 list prepend;
#X obj 319 472 list split 10;
#X text 403 466 cut the first 10 elements of the list \; as they are
just the headings of the \; excel table.;
#X obj 319 446 t a a;
#X obj 400 387 r clearListBang;
#X obj 97 537 r clearList;
#X obj 87 518 r setZlSize;
#X obj 58 420 list prepend;
#X text 138 427 build a list from stream of \; single excel entries
;
#X obj 58 442 t a a;
#X obj 127 395 r clearListBang;
#X text 249 285 distinguish between 'false' and sample name/headers
(sample_id \, sample_name \, is_playingSP1...) from excel \; table.
;
#X obj 58 69 t b b b b b b b, f 95;
#X obj 1780 568 outlet conflictsColumn1;
#X obj 1973 569 outlet conflictsColumn2;
#X msg 2296 115 zlclear;
#X obj 2399 136 s clearListBang2;
#X obj 2296 136 s clearConfList;
#X msg 436 102 zlmaxsize 1024;
#X obj 2193 134 s setConfZlSize;
#X msg 2193 114 zlmaxsize 8192;
#X obj 1780 209 textfile, f 13;
#X msg 1883 135 rewind;
#X msg 2089 112 clear;
#X obj 1780 116 until;
#X text 1885 206 read csv file specified above;
#X msg 1986 133 read postgresql_conflicts.csv;
#X obj 1780 234 list-drip;
#X obj 1780 256 route float symbol, f 32;
#X text 2050 255 the headings of the csv list are symbols.. \; discard
them. We only want floats.;
#X obj 1780 68 t b b b b b b b b, f 121;
#X msg 2503 117 0;
#X obj 2503 137 s initConfListCounter;
#X obj 1780 277 t f b;
#X obj 1807 305 f 0;
#X obj 1837 305 + 1;
#X obj 1780 362 pack f f, f 10;
#X obj 1837 328 % 2;
#X obj 1780 421 route 1 0, f 65;
#X msg 1780 385 \$2 \$1;
#X text 1849 357 Here we route the sampleIds that belong to the same
index of the list into two different zl nth objects 1 = output SampleId
in column "sample_id_1" for index xy \; 0 = output SampleId in column
"sample_id_2" for the same index xy \;;
#X obj 1780 472 list prepend;
#X obj 1780 494 t a a;
#X obj 1849 447 r clearListBang2;
#X obj 1822 539 r clearConfList;
#X obj 1812 520 r setConfZlSize;
#X obj 1822 284 r initConfListCounter;
#X obj 1973 472 list prepend;
#X obj 1973 494 t a a;
#X obj 2042 447 r clearListBang2;
#X obj 2050 539 r clearConfList;
#X obj 2040 520 r setConfZlSize;
#X obj 241 324 print ERROR while routing contents of sample name textfile
;
#X obj 1969 290 print ERROR while routing contents of conflicts textfile
via float & symbol;
#X obj 2167 454 print ERROR while routing contents of conflicts textfile
via 1 & 0;
#X obj 58 44 t b b;
#X connect 10 0 98 0;
#X connect 11 0 18 0;
#X connect 11 1 16 1;
#X connect 12 0 11 0;
#X connect 13 0 11 0;
#X connect 14 0 11 0;
#X connect 16 0 11 0;
#X connect 18 0 23 0;
#X connect 20 0 15 0;
#X connect 23 0 50 0;
#X connect 23 1 24 0;
#X connect 23 2 95 0;
#X connect 24 0 25 0;
#X connect 24 1 40 0;
#X connect 25 0 27 0;
#X connect 26 0 28 1;
#X connect 27 0 28 0;
#X connect 27 1 26 0;
#X connect 28 0 29 0;
#X connect 29 0 39 0;
#X connect 30 0 2 0;
#X connect 31 0 3 0;
#X connect 32 0 4 0;
#X connect 33 0 5 0;
#X connect 34 0 6 0;
#X connect 35 0 7 0;
#X connect 36 0 8 0;
#X connect 37 0 9 0;
#X connect 39 0 30 0;
#X connect 39 1 31 0;
#X connect 39 2 32 0;
#X connect 39 3 33 0;
#X connect 39 4 34 0;
#X connect 39 5 35 0;
#X connect 39 6 36 0;
#X connect 39 7 37 0;
#X connect 39 8 38 0;
#X connect 40 0 43 0;
#X connect 41 0 1 0;
#X connect 42 0 1 0;
#X connect 43 0 46 0;
#X connect 44 1 1 0;
#X connect 46 0 44 0;
#X connect 46 1 43 1;
#X connect 47 0 43 1;
#X connect 48 0 0 0;
#X connect 49 0 0 0;
#X connect 50 0 52 0;
#X connect 52 0 0 0;
#X connect 52 1 50 1;
#X connect 53 0 50 1;
#X connect 55 0 16 0;
#X connect 55 1 12 0;
#X connect 55 2 14 0;
#X connect 55 3 13 0;
#X connect 55 4 61 0;
#X connect 55 5 20 0;
#X connect 55 6 21 0;
#X connect 58 0 60 0;
#X connect 61 0 17 0;
#X connect 63 0 62 0;
#X connect 64 0 70 0;
#X connect 64 1 67 1;
#X connect 65 0 64 0;
#X connect 66 0 64 0;
#X connect 67 0 64 0;
#X connect 69 0 64 0;
#X connect 70 0 71 0;
#X connect 71 0 76 0;
#X connect 71 2 96 0;
#X connect 73 0 67 0;
#X connect 73 1 65 0;
#X connect 73 2 69 0;
#X connect 73 3 66 0;
#X connect 73 4 63 0;
#X connect 73 5 58 0;
#X connect 73 6 59 0;
#X connect 73 7 74 0;
#X connect 74 0 75 0;
#X connect 76 0 79 0;
#X connect 76 1 77 0;
#X connect 77 0 78 0;
#X connect 78 0 77 1;
#X connect 78 0 80 0;
#X connect 79 0 82 0;
#X connect 80 0 79 1;
#X connect 81 0 84 0;
#X connect 81 1 90 0;
#X connect 81 2 97 0;
#X connect 82 0 81 0;
#X connect 84 0 85 0;
#X connect 85 0 56 0;
#X connect 85 1 84 1;
#X connect 86 0 84 1;
#X connect 87 0 56 0;
#X connect 88 0 56 0;
#X connect 89 0 77 1;
#X connect 90 0 91 0;
#X connect 91 0 57 0;
#X connect 91 1 90 1;
#X connect 92 0 90 1;
#X connect 93 0 57 0;
#X connect 94 0 57 0;
#X connect 98 0 55 0;
#X connect 98 1 73 0;
#X restore 602 290 pd My_RSP_excelParsingInit;
#X f 166;
#X obj 602 239 r excelParseInitBang;
#X obj 12 26 inlet startS1;
#X obj 112 26 inlet selS1;
#X obj 223 28 inlet startS2;
#X obj 323 28 inlet selS2;
#X obj 444 27 inlet startS3;
#X obj 530 27 inlet selS3;
#X obj 664 25 inlet startS4;
#X obj 761 25 inlet selS4;
#X obj 894 25 inlet startS5;
#X obj 994 25 inlet selS5;
#X obj 1145 25 inlet startS6;
#X obj 1245 25 inlet selS6;
#X obj 1377 25 inlet startS7;
#X obj 1474 25 inlet selS7;
#X obj 1601 24 inlet startS8;
#X obj 1698 24 inlet selS8;
#X obj 342 167 s inletId;
#X obj 323 197 s nameIdQuery;
#X obj 254 491 zl sub;
#X obj 254 361 r nameIdQuery;
#X symbolatom 328 393 30 0 0 0 - - -;
#X obj 254 396 t b s, f 6;
#X obj 282 555 r inletId;
#X msg 342 146 2;
#X obj 223 56 t s b b;
#X obj 260 102 s queryId;
#X msg 262 81 0;
#X obj 254 623 pack f f f;
#X obj 311 586 r queryId;
#X text 377 585 queryId = 0 = starting a sample \; queryId = 1 = selecting
a sample = harmony detection;
#X text 315 643 \$3 = queryId \; \$2 = inletId \; \$1 = sampleId from
list;
#X obj 323 56 t s b b;
#X obj 360 104 s queryId;
#X msg 362 83 1;
#X obj 549 172 s inletId;
#X obj 530 197 s nameIdQuery;
#X obj 444 61 t s b b;
#X obj 481 107 s queryId;
#X msg 483 86 0;
#X obj 530 61 t s b b;
#X obj 567 109 s queryId;
#X msg 569 88 1;
#X msg 549 151 3;
#X obj 780 172 s inletId;
#X obj 761 197 s nameIdQuery;
#X obj 664 61 t s b b;
#X obj 701 107 s queryId;
#X msg 703 86 0;
#X obj 761 61 t s b b;
#X obj 798 109 s queryId;
#X msg 800 88 1;
#X msg 780 151 4;
#X obj 1013 172 s inletId;
#X obj 994 197 s nameIdQuery;
#X obj 894 61 t s b b;
#X obj 931 107 s queryId;
#X msg 933 86 0;
#X obj 994 61 t s b b;
#X obj 1031 109 s queryId;
#X msg 1033 88 1;
#X msg 1013 151 5;
#X obj 1264 172 s inletId;
#X obj 1245 197 s nameIdQuery;
#X obj 1145 61 t s b b;
#X obj 1182 107 s queryId;
#X msg 1184 86 0;
#X obj 1245 61 t s b b;
#X obj 1282 109 s queryId;
#X msg 1284 88 1;
#X msg 1264 151 6;
#X obj 1493 171 s inletId;
#X obj 1474 196 s nameIdQuery;
#X obj 1377 60 t s b b;
#X obj 1414 106 s queryId;
#X msg 1416 85 0;
#X obj 1474 60 t s b b;
#X obj 1511 108 s queryId;
#X msg 1513 87 1;
#X msg 1493 150 7;
#X obj 1777 172 s inletId;
#X obj 1698 197 s nameIdQuery;
#X obj 1601 61 t s b b;
#X obj 1638 107 s queryId;
#X msg 1640 86 0;
#X obj 1698 61 t s b b;
#X obj 1795 109 s queryId;
#X msg 1797 88 1;
#X msg 1777 151 8;
#X obj 131 176 s inletId;
#X obj 112 201 s nameIdQuery;
#X obj 12 65 t s b b;
#X obj 49 111 s queryId;
#X msg 51 90 0;
#X obj 112 65 t s b b;
#X obj 149 113 s queryId;
#X msg 151 92 1;
#X msg 131 155 1;
#X text 123 478 get index in list \; for a given sample \; name;
#X obj 1764 1324 zl sub;
#X text 1474 1302 conflicts list column 1;
#X text 1744 1302 conflicts list column 2;
#X obj 254 684 route 0 1, f 162;
#X text 279 703 0 = starting a sample \; > output id of starting \;
sample. \; 1 = selecting a sample \; > output id of selected sample
and do harmony \; detection;
#X obj 738 736 unpack f f;
#X obj 1561 1133 r bangConfList1;
#X obj 1512 1556 s indexesOfOccuranceList1;
#X obj 1857 1198 r indexesOfOccuranceList1;
#X obj 1857 1234 t b f;
#X obj 1533 1050 r modeConfList1;
#X obj 1764 1098 r modeConfList2;
#X obj 1624 1277 r playingIdConfList1;
#X obj 24 1923 list prepend;
#X obj 93 1848 r clearListBang;
#X obj 44 2012 r clearList;
#X obj 34 1992 r setZlSize;
#X obj 24 2159 zl sub, f 16;
#X obj 890 1379 send;
#X msg 961 1199 modeConfList;
#X obj 911 1336 pack s f;
#X msg 911 1356 symbol \$1\$2;
#X obj 956 1245 r listSwitchCount;
#X obj 956 1272 moses 2;
#X msg 956 1303 2;
#X msg 995 1302 1;
#X obj 708 1382 send;
#X msg 775 1200 modeConfList;
#X obj 729 1326 pack s f;
#X msg 729 1352 symbol \$1\$2;
#X obj 774 1235 r listSwitchCount;
#X obj 774 1262 moses 2;
#X msg 803 1293 2;
#X msg 774 1293 1;
#X msg 547 1201 playingIdConfList;
#X obj 547 1327 pack s f;
#X msg 547 1353 symbol \$1\$2;
#X obj 592 1236 r listSwitchCount;
#X obj 592 1263 moses 2;
#X msg 631 1293 2;
#X msg 592 1294 1;
#X obj 526 1382 send;
#X obj 365 1323 pack s f;
#X msg 365 1349 symbol \$1\$2;
#X obj 410 1232 r listSwitchCount;
#X obj 410 1259 moses 2;
#X msg 470 1290 2;
#X msg 410 1290 1;
#X obj 344 1380 send;
#X msg 365 1197 bangConfList;
#X obj 1777 1160 r bangConfList2;
#X obj 1557 1401 r listSwitchCount;
#X obj 1512 1433 pack f f;
#X msg 1512 1468 \$2 \$1;
#X obj 1512 1504 route 1 2;
#X obj 1789 1538 s indexesOfOccuranceList2;
#X obj 1922 1265 r playingIdConfList2;
#X obj 1764 1508 route 1 2;
#X obj 1809 1410 r listSwitchCount;
#X obj 1764 1438 pack f f;
#X obj 1590 1199 r indexesOfOccuranceList2;
#X obj 1590 1223 t b f;
#X msg 1764 1467 \$2 \$1;
#X text 1806 1459 \$2 = listSwitchCount \; \$1 = index of occurance
in list for given sample Id \; or sampleId at given index \, depending
on listSwitchCount;
#X msg 50 2053 zlclear;
#X obj 1804 1129 print modeConfList2;
#X obj 1541 1082 print modeConfList1;
#X obj 1581 1164 print bangConfList1;
#X obj 1481 1261 bng 15 250 50 0 empty empty empty 17 7 0 10 -262144
-1 -1;
#X obj 1781 1378 print valuesforList2;
#X obj 1659 1230 print indexesofOccuranceLIst2;
#X msg 890 1199 mode nth;
#X msg 708 1199 mode sub;
#X obj 1512 1332 zl sub;
#X obj 1072 1273 s listSwitchCount;
#X obj 1106 1249 + 1;
#X obj 269 1418 r listSwitchCount;
#X obj 254 1440 f 0;
#X obj 252 1460 moses 2;
#X obj 252 1572 s doItAgain;
#X obj 264 1133 r doItAgain;
#X obj 1072 1249 f 1;
#X obj 252 1552 f 0;
#X obj 254 1156 t b b b f b b b b b b f, f 152;
#X obj 1163 1190 s sampleIdToPlay;
#X obj 267 1532 r sampleIdToPlay;
#X obj 252 1513 bang;
#X obj 291 1506 s resetListSwitchCount;
#X obj 1087 1226 r resetListSwitchCount;
#X msg 291 1482 1;
#X obj 254 796 unpack f f;
#X msg 254 653 \$3 \$1 \$2;
#X text 339 790 rechts: inlet id \; links sample id;
#X obj 1537 1751 send;
#X obj 1683 1660 t b f, f 24;
#X obj 1683 1705 pack s f, f 24;
#X msg 1683 1683 conflictValuesTrack;
#X msg 1683 1726 symbol \$1\$2;
#X obj 311 825 s confListInletId;
#X obj 1683 1623 r confListInletId;
#X obj 24 1801 r conflictValuesTrack1;
#X obj 304 1801 r conflictValuesTrack2;
#X obj 566 1801 r conflictValuesTrack3;
#X obj 786 1801 r conflictValuesTrack4;
#X obj 996 1801 r conflictValuesTrack5;
#X obj 1214 1801 r conflictValuesTrack6;
#X obj 1435 1801 r conflictValuesTrack7;
#X obj 1655 1801 r conflictValuesTrack8;
#X floatatom 192 840 5 0 0 0 - - -;
#X obj 302 895 t b f, f 24;
#X obj 302 940 pack s f, f 24;
#X msg 302 961 symbol \$1\$2;
#X obj 302 873 r confListInletId;
#X msg 302 918 clearConfList;
#X obj 103 1870 r clearConfList1;
#X obj 103 1891 print clearConfList1;
#X obj 254 841 t f b;
#X obj 281 991 send;
#X obj 24 1943 t a;
#X obj 304 1903 list prepend;
#X obj 373 1828 r clearListBang;
#X obj 304 1923 t a;
#X obj 383 1871 print clearConfList2;
#X obj 383 1850 r clearConfList2;
#X obj 383 1938 print conflicList2;
#X obj 50 2034 r clearConfList1;
#X obj 324 1992 r clearList;
#X obj 314 1972 r setZlSize;
#X obj 304 2159 zl sub, f 17;
#X msg 330 2033 zlclear;
#X obj 330 2014 r clearConfList2;
#X obj 566 1908 list prepend;
#X obj 635 1833 r clearListBang;
#X obj 586 1997 r clearList;
#X obj 576 1977 r setZlSize;
#X obj 566 2154 zl sub, f 16;
#X msg 592 2038 zlclear;
#X obj 566 1928 t a;
#X obj 434 2180 print occ2;
#X obj 336 2189 print atindex2;
#X obj 555 2230 print atindex3;
#X obj 646 2231 print occ3;
#X obj 592 2019 r clearConfList3;
#X obj 645 1855 r clearConfList3;
#X obj 645 1876 print clearConfList3;
#X obj 786 1908 list prepend;
#X obj 855 1833 r clearListBang;
#X obj 806 2007 r clearList;
#X obj 796 1987 r setZlSize;
#X obj 786 2154 zl sub, f 18;
#X msg 812 2048 zlclear;
#X obj 786 1928 t a;
#X obj 865 1855 r clearConfList4;
#X obj 865 1876 print clearConfList4;
#X obj 812 2029 r clearConfList4;
#X obj 775 2240 print atindex4;
#X obj 866 2241 print occ4;
#X obj 996 1908 list prepend;
#X obj 1065 1833 r clearListBang;
#X obj 1016 1997 r clearList;
#X obj 1006 1977 r setZlSize;
#X obj 996 2153 zl sub, f 17;
#X msg 1022 2038 zlclear;
#X obj 996 1928 t a;
#X obj 1075 1855 r clearConfList5;
#X obj 1075 1876 print clearConfList5;
#X obj 1022 2019 r clearConfList5;
#X obj 985 2250 print atindex5;
#X obj 1076 2251 print occ5;
#X obj 1214 1908 list prepend;
#X obj 1283 1833 r clearListBang;
#X obj 1234 1997 r clearList;
#X obj 1224 1977 r setZlSize;
#X obj 1214 2154 zl sub, f 16;
#X msg 1240 2038 zlclear;
#X obj 1293 1855 r clearConfList6;
#X obj 1293 1876 print clearConfList6;
#X obj 1240 2019 r clearConfList6;
#X obj 1203 2260 print atindex6;
#X obj 1294 2261 print occ6;
#X obj 1214 1929 t a;
#X obj 1435 1908 list prepend;
#X obj 1504 1833 r clearListBang;
#X obj 1455 1997 r clearList;
#X obj 1445 1977 r setZlSize;
#X obj 1435 2154 zl sub, f 17;
#X msg 1461 2038 zlclear;
#X obj 1435 1929 t a;
#X obj 1514 1855 r clearConfList7;
#X obj 1514 1876 print clearConfList7;
#X obj 1461 2019 r clearConfList7;
#X obj 1424 2270 print atindex7;
#X obj 1515 2271 print occ7;
#X obj 1655 1907 list prepend;
#X obj 1724 1832 r clearListBang;
#X obj 1675 1992 r clearList;
#X obj 1665 1972 r setZlSize;
#X obj 1655 2154 zl sub, f 16;
#X msg 1681 2033 zlclear;
#X obj 1655 1928 t a;
#X obj 1734 1854 r clearConfList8;
#X obj 1734 1875 print clearConfList8;
#X obj 1681 2014 r clearConfList8;
#X obj 1644 2270 print atindex8;
#X obj 1735 2271 print occ8;
#N canvas 553 138 587 548 My_RSP_CounterWithGap 0;
#X obj 21 26 inlet numberToCountTo;
#X obj 187 28 inlet numberToGap;
#X obj 21 162 until;
#X obj 55 217 + 1;
#X obj 36 189 r resetGapCounter;
#X obj 48 106 s numberToCountUpTo;
#X obj 201 321 r numberToCountUpTo;
#X obj 186 349 ==;
#X obj 186 374 moses 1;
#X obj 225 396 s resetGapCounter;
#X obj 21 218 f 1;
#X obj 187 105 s numberToGapOver;
#X obj 69 321 r numberToGapOver;
#X obj 21 451 outlet countingStreamWithGap;
#X obj 21 84 t f f;
#X obj 21 244 t f f f, f 28;
#X obj 54 343 !=;
#X obj 21 373 spigot;
#X text 410 37 30th March 2019 \; This subpatch counts up \; to a given
number but skips \; the number specified at the \; second inlet. \;
Caution: The order of the incoming \; numbers has to be set corretly
\; in the parent patch.;
#X connect 0 0 14 0;
#X connect 1 0 11 0;
#X connect 2 0 10 0;
#X connect 3 0 10 1;
#X connect 4 0 10 1;
#X connect 6 0 7 1;
#X connect 7 0 8 0;
#X connect 8 1 9 0;
#X connect 10 0 3 0;
#X connect 10 0 15 0;
#X connect 12 0 16 1;
#X connect 14 0 2 0;
#X connect 14 1 5 0;
#X connect 15 0 17 0;
#X connect 15 1 16 0;
#X connect 15 2 7 0;
#X connect 16 0 17 1;
#X connect 17 0 13 0;
#X restore 738 845 pd My_RSP_CounterWithGap;
#X msg 738 817 8;
#X obj 738 1055 send, f 6;
#X obj 786 956 pack s f, f 14;
#X msg 786 932 selectingId;
#X obj 54 2097 r selectingId1;
#X obj 199 2092 print selid1;
#X msg 786 982 symbol \$1\$2;
#X obj 738 1020 f;
#X obj 738 876 t b b f, f 22;
#X msg 738 715 \$2 \$1;
#X text 851 743 rechts = sample ID \; links = inlet ID;
#X floatatom 826 762 5 0 0 0 - - -;
#X obj 54 2118 t b f, f 11;
#X obj 61 2255 print occ1;
#X obj 21 2280 print atindex1;
#X obj 340 2118 t b f, f 11;
#X obj 429 2122 print selid2;
#X obj 340 2097 r selectingId2;
#X obj 596 2098 t b f, f 11;
#X obj 596 2077 r selectingId3;
#X obj 685 2102 print selid3;
#X obj 828 2108 t b f, f 11;
#X obj 828 2087 r selectingId4;
#X obj 917 2112 print selid4;
#X obj 1032 2108 t b f, f 11;
#X obj 1032 2087 r selectingId5;
#X obj 1121 2112 print selid5;
#X obj 1244 2109 t b f, f 11;
#X obj 1244 2088 r selectingId6;
#X obj 1333 2113 print selid6;
#X obj 1471 2119 t b f, f 11;
#X obj 1471 2098 r selectingId7;
#X obj 1560 2123 print selid7;
#X obj 1685 2119 t b f, f 11;
#X obj 1685 2098 r selectingId8;
#X obj 1774 2123 print selid8;
#X obj 34 2338 wiringPi_gpio 23 0 0;
#X text 69 2316 Blau Harmonie 1;
#X obj 311 2407 wiringPi_gpio 22 0 0;
#X text 295 2274 Rot Harmonie 1;
#X obj 311 2317 r metroWholeBeats;
#X msg 523 2346 1;
#X obj 311 2383 spigot, f 29;
#X obj 304 2281 s activeAlarmList;
#X msg 304 2258 2;
#X obj 304 2226 t b b, f 37;
#X obj 991 1429 r activeAlarmList;
#X msg 991 1452 prepend \$1;
#X obj 991 1522 list store;
#X text 1056 1513 list of inletIDs which are active showing a harmony
Alarm.;
#X text 1175 2344 Rot Harmonie 1;
#X obj 1271 2377 r metroWholeBeats;
#X msg 1400 2387 1;
#X obj 1271 2412 spigot, f 22;
#X obj 1184 2351 s activeAlarmList;
#X obj 1184 2296 t b b, f 34;
#X msg 1184 2328 6;
#X obj 1271 2447 wiringPi_gpio 13 0 0;
#X obj 738 789 t b f b, f 24;
#X obj 879 813 s stopActiveLeds;
#X text 1057 1526 bang in right inlet = clearing list;
#X obj 1005 1478 r stopActiveLeds;
#X obj 991 1545 t b a;
#X obj 1018 1569 list-drip;
#X obj 1018 1596 t b b f, f 20;
#X obj 1076 1647 pack s f, f 10;
#X msg 1076 1624 stopLed;
#X msg 1076 1670 symbol \$1\$2;
#X obj 1018 1699 send;
#X msg 1018 1659 0;
#X obj 455 2318 r stopLed2;
#X obj 455 2343 t f f;
#X connect 3 0 0 0;
#X connect 3 1 23 0;
#X connect 3 10 176 0;
#X connect 3 11 103 0;
#X connect 4 0 3 0;
#X connect 5 0 95 0;
#X connect 6 0 98 0;
#X connect 7 0 29 0;
#X connect 8 0 36 0;
#X connect 9 0 41 0;
#X connect 10 0 44 0;
#X connect 11 0 50 0;
#X connect 12 0 53 0;
#X connect 13 0 59 0;
#X connect 14 0 62 0;
#X connect 15 0 68 0;
#X connect 16 0 71 0;
#X connect 17 0 77 0;
#X connect 18 0 80 0;
#X connect 19 0 86 0;
#X connect 20 0 89 0;
#X connect 23 0 32 0;
#X connect 24 0 25 0;
#X connect 24 0 26 0;
#X connect 26 0 23 0;
#X connect 26 1 23 1;
#X connect 27 0 32 1;
#X connect 28 0 21 0;
#X connect 29 0 22 0;
#X connect 29 1 28 0;
#X connect 29 2 31 0;
#X connect 31 0 30 0;
#X connect 32 0 194 0;
#X connect 33 0 32 2;
#X connect 36 0 22 0;
#X connect 36 1 28 0;
#X connect 36 2 38 0;
#X connect 38 0 37 0;
#X connect 41 0 40 0;
#X connect 41 1 47 0;
#X connect 41 2 43 0;
#X connect 43 0 42 0;
#X connect 44 0 40 0;
#X connect 44 1 47 0;
#X connect 44 2 46 0;
#X connect 46 0 45 0;
#X connect 47 0 39 0;
#X connect 50 0 49 0;
#X connect 50 1 56 0;
#X connect 50 2 52 0;
#X connect 52 0 51 0;
#X connect 53 0 49 0;
#X connect 53 1 56 0;
#X connect 53 2 55 0;
#X connect 55 0 54 0;
#X connect 56 0 48 0;
#X connect 59 0 58 0;
#X connect 59 1 65 0;
#X connect 59 2 61 0;
#X connect 61 0 60 0;
#X connect 62 0 58 0;
#X connect 62 1 65 0;
#X connect 62 2 64 0;
#X connect 64 0 63 0;
#X connect 65 0 57 0;
#X connect 68 0 67 0;
#X connect 68 1 74 0;
#X connect 68 2 70 0;
#X connect 70 0 69 0;
#X connect 71 0 67 0;
#X connect 71 1 74 0;
#X connect 71 2 73 0;
#X connect 73 0 72 0;
#X connect 74 0 66 0;
#X connect 77 0 76 0;
#X connect 77 1 83 0;
#X connect 77 2 79 0;
#X connect 79 0 78 0;
#X connect 80 0 76 0;
#X connect 80 1 83 0;
#X connect 80 2 82 0;
#X connect 82 0 81 0;
#X connect 83 0 75 0;
#X connect 86 0 85 0;
#X connect 86 1 92 0;
#X connect 86 2 88 0;
#X connect 88 0 87 0;
#X connect 89 0 85 0;
#X connect 89 1 92 0;
#X connect 89 2 91 0;
#X connect 91 0 90 0;
#X connect 92 0 84 0;
#X connect 95 0 94 0;
#X connect 95 1 101 0;
#X connect 95 2 97 0;
#X connect 97 0 96 0;
#X connect 98 0 94 0;
#X connect 98 1 101 0;
#X connect 98 2 100 0;
#X connect 100 0 99 0;
#X connect 101 0 93 0;
#X connect 103 0 162 0;
#X connect 106 0 193 0;
#X connect 106 1 318 0;
#X connect 108 0 367 0;
#X connect 108 1 316 1;
#X connect 108 1 320 0;
#X connect 109 0 176 0;
#X connect 111 0 112 0;
#X connect 112 0 103 0;
#X connect 112 1 103 1;
#X connect 113 0 176 0;
#X connect 114 0 103 0;
#X connect 115 0 176 1;
#X connect 116 0 221 0;
#X connect 117 0 116 1;
#X connect 118 0 120 0;
#X connect 119 0 120 0;
#X connect 120 0 323 0;
#X connect 120 1 322 0;
#X connect 122 0 123 0;
#X connect 123 0 124 0;
#X connect 124 0 121 1;
#X connect 125 0 126 0;
#X connect 126 0 127 0;
#X connect 126 1 128 0;
#X connect 127 0 123 1;
#X connect 128 0 123 1;
#X connect 130 0 131 0;
#X connect 131 0 132 0;
#X connect 132 0 129 1;
#X connect 133 0 134 0;
#X connect 134 0 136 0;
#X connect 134 1 135 0;
#X connect 135 0 131 1;
#X connect 136 0 131 1;
#X connect 137 0 138 0;
#X connect 138 0 139 0;
#X connect 139 0 144 1;
#X connect 140 0 141 0;
#X connect 141 0 143 0;
#X connect 141 1 142 0;
#X connect 142 0 138 1;
#X connect 143 0 138 1;
#X connect 145 0 146 0;
#X connect 146 0 151 1;
#X connect 147 0 148 0;
#X connect 148 0 150 0;
#X connect 148 1 149 0;
#X connect 149 0 145 1;
#X connect 150 0 145 1;
#X connect 152 0 145 0;
#X connect 153 0 103 0;
#X connect 154 0 155 1;
#X connect 155 0 156 0;
#X connect 156 0 157 0;
#X connect 157 0 110 0;
#X connect 157 1 196 0;
#X connect 159 0 103 1;
#X connect 160 0 196 0;
#X connect 160 1 158 0;
#X connect 161 0 162 1;
#X connect 162 0 165 0;
#X connect 163 0 164 0;
#X connect 164 0 176 0;
#X connect 164 1 176 1;
#X connect 165 0 160 0;
#X connect 167 0 120 0;
#X connect 171 0 176 0;
#X connect 174 0 121 0;
#X connect 175 0 129 0;
#X connect 176 0 155 0;
#X connect 178 0 184 1;
#X connect 179 0 180 1;
#X connect 180 0 181 0;
#X connect 181 0 189 0;
#X connect 181 1 192 0;
#X connect 183 0 186 0;
#X connect 184 0 178 0;
#X connect 184 0 177 0;
#X connect 185 0 182 0;
#X connect 186 0 180 0;
#X connect 186 1 151 0;
#X connect 186 2 152 0;
#X connect 186 3 144 0;
#X connect 186 4 137 0;
#X connect 186 5 175 0;
#X connect 186 6 130 0;
#X connect 186 7 174 0;
#X connect 186 8 122 0;
#X connect 186 9 184 0;
#X connect 186 10 187 0;
#X connect 188 0 185 1;
#X connect 189 0 185 0;
#X connect 191 0 184 1;
#X connect 192 0 190 0;
#X connect 193 0 211 0;
#X connect 193 0 219 0;
#X connect 193 1 201 0;
#X connect 194 0 106 0;
#X connect 197 0 199 0;
#X connect 197 1 198 1;
#X connect 198 0 200 0;
#X connect 199 0 198 0;
#X connect 200 0 196 1;
#X connect 202 0 197 0;
#X connect 203 0 116 0;
#X connect 204 0 222 0;
#X connect 205 0 234 0;
#X connect 206 0 248 0;
#X connect 207 0 260 0;
#X connect 208 0 272 0;
#X connect 209 0 284 0;
#X connect 210 0 296 0;
#X connect 212 0 216 0;
#X connect 212 1 213 1;
#X connect 213 0 214 0;
#X connect 214 0 220 1;
#X connect 215 0 212 0;
#X connect 216 0 213 0;
#X connect 217 0 116 1;
#X connect 217 0 218 0;
#X connect 219 0 186 0;
#X connect 219 1 220 0;
#X connect 221 0 116 1;
#X connect 221 0 120 0;
#X connect 222 0 224 0;
#X connect 223 0 222 1;
#X connect 224 0 222 1;
#X connect 224 0 231 0;
#X connect 224 0 227 0;
#X connect 226 0 222 1;
#X connect 226 0 225 0;
#X connect 228 0 167 0;
#X connect 229 0 231 0;
#X connect 230 0 231 0;
#X connect 231 0 242 0;
#X connect 231 0 354 0;
#X connect 231 1 241 0;
#X connect 232 0 231 0;
#X connect 233 0 232 0;
#X connect 234 0 240 0;
#X connect 235 0 234 1;
#X connect 236 0 238 0;
#X connect 237 0 238 0;
#X connect 238 0 243 0;
#X connect 238 1 244 0;
#X connect 239 0 238 0;
#X connect 240 0 234 1;
#X connect 240 0 238 0;
#X connect 245 0 239 0;
#X connect 246 0 234 1;
#X connect 246 0 247 0;
#X connect 248 0 254 0;
#X connect 249 0 248 1;
#X connect 250 0 252 0;
#X connect 251 0 252 0;
#X connect 252 0 258 0;
#X connect 252 1 259 0;
#X connect 253 0 252 0;
#X connect 254 0 248 1;
#X connect 254 0 252 0;
#X connect 255 0 248 1;
#X connect 255 0 256 0;
#X connect 257 0 253 0;
#X connect 260 0 266 0;
#X connect 261 0 260 1;
#X connect 262 0 264 0;
#X connect 263 0 264 0;
#X connect 264 0 270 0;
#X connect 264 1 271 0;
#X connect 265 0 264 0;
#X connect 266 0 260 1;
#X connect 266 0 264 0;
#X connect 267 0 260 1;
#X connect 267 0 268 0;
#X connect 269 0 265 0;
#X connect 272 0 283 0;
#X connect 273 0 272 1;
#X connect 274 0 276 0;
#X connect 275 0 276 0;
#X connect 276 0 281 0;
#X connect 276 0 364 0;
#X connect 276 1 282 0;
#X connect 277 0 276 0;
#X connect 278 0 272 1;
#X connect 278 0 279 0;
#X connect 280 0 277 0;
#X connect 283 0 272 1;
#X connect 283 0 276 0;
#X connect 284 0 290 0;
#X connect 285 0 284 1;
#X connect 286 0 288 0;
#X connect 287 0 288 0;
#X connect 288 0 294 0;
#X connect 288 1 295 0;
#X connect 289 0 288 0;
#X connect 290 0 284 1;
#X connect 290 0 288 0;
#X connect 291 0 284 1;
#X connect 291 0 292 0;
#X connect 293 0 289 0;
#X connect 296 0 302 0;
#X connect 297 0 296 1;
#X connect 298 0 300 0;
#X connect 299 0 300 0;
#X connect 300 0 306 0;
#X connect 300 1 307 0;
#X connect 301 0 300 0;
#X connect 302 0 296 1;
#X connect 302 0 300 0;
#X connect 303 0 296 1;
#X connect 303 0 304 0;
#X connect 305 0 301 0;
#X connect 308 0 317 0;
#X connect 309 0 308 0;
#X connect 311 0 315 0;
#X connect 312 0 311 0;
#X connect 313 0 314 0;
#X connect 313 0 321 0;
#X connect 315 0 310 1;
#X connect 316 0 310 0;
#X connect 317 0 316 0;
#X connect 317 1 312 0;
#X connect 317 2 311 1;
#X connect 318 0 108 0;
#X connect 321 0 120 0;
#X connect 321 1 120 1;
#X connect 324 0 231 0;
#X connect 324 1 231 1;
#X connect 326 0 324 0;
#X connect 326 0 325 0;
#X connect 327 0 238 0;
#X connect 327 1 238 1;
#X connect 328 0 327 0;
#X connect 328 0 329 0;
#X connect 330 0 252 0;
#X connect 330 1 252 1;
#X connect 331 0 330 0;
#X connect 331 0 332 0;
#X connect 333 0 264 0;
#X connect 333 1 264 1;
#X connect 334 0 333 0;
#X connect 334 0 335 0;
#X connect 336 0 276 0;
#X connect 336 1 276 1;
#X connect 337 0 336 0;
#X connect 337 0 338 0;
#X connect 339 0 288 0;
#X connect 339 1 288 1;
#X connect 340 0 339 0;
#X connect 340 0 341 0;
#X connect 342 0 300 0;
#X connect 342 1 300 1;
#X connect 343 0 342 0;
#X connect 343 0 344 0;
#X connect 349 0 351 0;
#X connect 350 0 351 1;
#X connect 350 0 347 0;
#X connect 351 0 347 0;
#X connect 353 0 352 0;
#X connect 354 0 353 0;
#X connect 354 1 350 0;
#X connect 355 0 356 0;
#X connect 356 0 357 0;
#X connect 357 0 371 0;
#X connect 360 0 362 0;
#X connect 361 0 362 1;
#X connect 362 0 366 0;
#X connect 364 0 365 0;
#X connect 364 1 361 0;
#X connect 365 0 363 0;
#X connect 367 0 309 0;
#X connect 367 1 308 1;
#X connect 367 2 368 0;
#X connect 370 0 357 0;
#X connect 371 0 357 1;
#X connect 371 1 372 0;
#X connect 372 0 373 0;
#X connect 373 0 378 0;
#X connect 373 1 375 0;
#X connect 373 2 374 1;
#X connect 374 0 376 0;
#X connect 375 0 374 0;
#X connect 376 0 377 1;
#X connect 378 0 377 0;
#X connect 379 0 380 0;
#X connect 380 0 347 0;
#X connect 380 1 351 1;
