#N canvas -114 112 1503 550 10;
#X obj 64 442 zl nth;
#X text 17 400 contains list of \; all sample_ids;
#X text 305 427 contains list of \; all sample names;
#N canvas 35 62 1161 579 My_RSP_excelParsingInit 0;
#X obj 58 576 outlet ids;
#X obj 356 577 outlet samplenames;
#X obj 659 566 outlet truefalse1;
#X obj 769 566 outlet truefalse2;
#X obj 879 566 outlet truefalse3;
#X obj 989 566 outlet truefalse4;
#X obj 1099 566 outlet truefalse5;
#X obj 1209 566 outlet truefalse6;
#X obj 1319 566 outlet truefalse7;
#X obj 1429 566 outlet truefalse8;
#X obj 58 18 inlet init;
#X obj 58 219 textfile, f 13;
#X msg 152 127 rewind;
#X msg 341 96 clear;
#X msg 247 123 read postgresql_samples.csv;
#X obj 530 123 s clearList;
#X obj 58 166 until;
#X obj 436 122 s setZlSize;
#X obj 58 257 list-drip;
#X text 161 246 some lines are output as lists \, some are not. \;
We need to serialize the lists with drip \; in order to route them
;
#X msg 530 102 zlclear;
#X obj 625 105 s clearListBang;
#X text 163 216 read csv file specified above;
#X obj 58 290 route float symbol, f 31;
#X obj 149 319 select false;
#X msg 149 344 symbol false;
#X obj 704 413 counter 1 8;
#X obj 659 384 t s b, f 8;
#X obj 659 439 pack s f;
#X msg 659 461 \$2 \$1;
#N canvas 0 50 450 300 listPopu1 0;
#X obj 79 25 inlet;
#X obj 79 244 outlet;
#X obj 106 200 r clearList;
#X obj 98 180 r setZlSize;
#X obj 79 107 list prepend;
#X obj 79 129 t a a;
#X obj 148 84 r clearListBang;
#X connect 0 0 4 0;
#X connect 2 0 1 0;
#X connect 3 0 1 0;
#X connect 4 0 5 0;
#X connect 5 0 1 0;
#X connect 5 1 4 1;
#X connect 6 0 4 1;
#X restore 659 514 pd listPopu1;
#N canvas 0 50 450 300 listPopu2 0;
#X obj 79 25 inlet;
#X obj 79 244 outlet;
#X obj 106 200 r clearList;
#X obj 98 180 r setZlSize;
#X obj 79 107 list prepend;
#X obj 79 129 t a a;
#X obj 148 84 r clearListBang;
#X connect 0 0 4 0;
#X connect 2 0 1 0;
#X connect 3 0 1 0;
#X connect 4 0 5 0;
#X connect 5 0 1 0;
#X connect 5 1 4 1;
#X connect 6 0 4 1;
#X restore 750 513 pd listPopu2;
#N canvas 0 50 450 300 listPopu3 0;
#X obj 79 25 inlet;
#X obj 79 244 outlet;
#X obj 106 200 r clearList;
#X obj 98 180 r setZlSize;
#X obj 79 107 list prepend;
#X obj 79 129 t a a;
#X obj 148 84 r clearListBang;
#X connect 0 0 4 0;
#X connect 2 0 1 0;
#X connect 3 0 1 0;
#X connect 4 0 5 0;
#X connect 5 0 1 0;
#X connect 5 1 4 1;
#X connect 6 0 4 1;
#X restore 840 513 pd listPopu3;
#N canvas 0 50 450 300 listPopu4 0;
#X obj 79 25 inlet;
#X obj 79 244 outlet;
#X obj 106 200 r clearList;
#X obj 98 180 r setZlSize;
#X obj 79 107 list prepend;
#X obj 79 129 t a a;
#X obj 148 84 r clearListBang;
#X connect 0 0 4 0;
#X connect 2 0 1 0;
#X connect 3 0 1 0;
#X connect 4 0 5 0;
#X connect 5 0 1 0;
#X connect 5 1 4 1;
#X connect 6 0 4 1;
#X restore 941 513 pd listPopu4;
#N canvas 0 50 450 300 listPopu5 0;
#X obj 79 25 inlet;
#X obj 79 244 outlet;
#X obj 106 200 r clearList;
#X obj 98 180 r setZlSize;
#X obj 79 107 list prepend;
#X obj 79 129 t a a;
#X obj 148 84 r clearListBang;
#X connect 0 0 4 0;
#X connect 2 0 1 0;
#X connect 3 0 1 0;
#X connect 4 0 5 0;
#X connect 5 0 1 0;
#X connect 5 1 4 1;
#X connect 6 0 4 1;
#X restore 1041 513 pd listPopu5;
#N canvas 0 50 450 300 listPopu6 0;
#X obj 79 25 inlet;
#X obj 79 244 outlet;
#X obj 106 200 r clearList;
#X obj 98 180 r setZlSize;
#X obj 79 107 list prepend;
#X obj 79 129 t a a;
#X obj 148 84 r clearListBang;
#X connect 0 0 4 0;
#X connect 2 0 1 0;
#X connect 3 0 1 0;
#X connect 4 0 5 0;
#X connect 5 0 1 0;
#X connect 5 1 4 1;
#X connect 6 0 4 1;
#X restore 1141 513 pd listPopu6;
#N canvas 0 50 450 300 listPopu7 0;
#X obj 79 25 inlet;
#X obj 79 244 outlet;
#X obj 106 200 r clearList;
#X obj 98 180 r setZlSize;
#X obj 79 107 list prepend;
#X obj 79 129 t a a;
#X obj 148 84 r clearListBang;
#X connect 0 0 4 0;
#X connect 2 0 1 0;
#X connect 3 0 1 0;
#X connect 4 0 5 0;
#X connect 5 0 1 0;
#X connect 5 1 4 1;
#X connect 6 0 4 1;
#X restore 1241 513 pd listPopu7;
#N canvas 0 50 450 300 listPopu8 0;
#X obj 79 25 inlet;
#X obj 79 244 outlet;
#X obj 106 200 r clearList;
#X obj 98 180 r setZlSize;
#X obj 79 107 list prepend;
#X obj 79 129 t a a;
#X obj 148 84 r clearListBang;
#X connect 0 0 4 0;
#X connect 2 0 1 0;
#X connect 3 0 1 0;
#X connect 4 0 5 0;
#X connect 5 0 1 0;
#X connect 5 1 4 1;
#X connect 6 0 4 1;
#X restore 1331 511 pd listPopu8;
#X obj 1430 511 print ERROR while routing 'false' init values from
excel table;
#X obj 659 483 route 1 2 3 4 5 6 7 8, f 114;
#X msg 319 395 \$1;
#X obj 396 534 r clearList;
#X obj 388 514 r setZlSize;
#X obj 319 422 list prepend;
#X obj 319 472 list split 10;
#X text 403 466 cut the first 10 elements of the list \; as they are
just the headings of the \; excel table.;
#X obj 319 446 t a a;
#X obj 400 387 r clearListBang;
#X obj 97 537 r clearList;
#X obj 87 518 r setZlSize;
#X obj 58 420 list prepend;
#X text 138 427 build a list from stream of \; single excel entries
;
#X obj 58 442 t a a;
#X obj 127 395 r clearListBang;
#X text 249 285 distinguish between 'false' and sample name/headers
(sample_id \, sample_name \, is_playingSP1...) from excel \; table.
;
#X obj 58 69 t b b b b b b b, f 95;
#X obj 1780 568 outlet conflictsColumn1;
#X obj 1973 569 outlet conflictsColumn2;
#X msg 2296 115 zlclear;
#X obj 2399 136 s clearListBang2;
#X obj 2296 136 s clearConfList;
#X msg 436 102 zlmaxsize 1024;
#X obj 2193 134 s setConfZlSize;
#X msg 2193 114 zlmaxsize 8192;
#X obj 1780 209 textfile, f 13;
#X msg 1883 135 rewind;
#X msg 2089 112 clear;
#X obj 1780 116 until;
#X text 1885 206 read csv file specified above;
#X msg 1986 133 read postgresql_conflicts.csv;
#X obj 1780 234 list-drip;
#X obj 1780 256 route float symbol, f 32;
#X text 2050 255 the headings of the csv list are symbols.. \; discard
them. We only want floats.;
#X obj 1780 68 t b b b b b b b b, f 121;
#X msg 2503 117 0;
#X obj 2503 137 s initConfListCounter;
#X obj 1780 277 t f b;
#X obj 1807 305 f 0;
#X obj 1837 305 + 1;
#X obj 1780 362 pack f f, f 10;
#X obj 1837 328 % 2;
#X obj 1780 421 route 1 0, f 65;
#X msg 1780 385 \$2 \$1;
#X text 1849 357 Here we route the sampleIds that belong to the same
index of the list into two different zl nth objects 1 = output SampleId
in column "sample_id_1" for index xy \; 0 = output SampleId in column
"sample_id_2" for the same index xy \;;
#X obj 1780 472 list prepend;
#X obj 1780 494 t a a;
#X obj 1849 447 r clearListBang2;
#X obj 1822 539 r clearConfList;
#X obj 1812 520 r setConfZlSize;
#X obj 1822 284 r initConfListCounter;
#X obj 1973 472 list prepend;
#X obj 1973 494 t a a;
#X obj 2042 447 r clearListBang2;
#X obj 2050 539 r clearConfList;
#X obj 2040 520 r setConfZlSize;
#X obj 241 324 print ERROR while routing contents of sample name textfile
;
#X obj 1969 290 print ERROR while routing contents of conflicts textfile
via float & symbol;
#X obj 2167 454 print ERROR while routing contents of conflicts textfile
via 1 & 0;
#X obj 58 44 t b b;
#X connect 10 0 98 0;
#X connect 11 0 18 0;
#X connect 11 1 16 1;
#X connect 12 0 11 0;
#X connect 13 0 11 0;
#X connect 14 0 11 0;
#X connect 16 0 11 0;
#X connect 18 0 23 0;
#X connect 20 0 15 0;
#X connect 23 0 50 0;
#X connect 23 1 24 0;
#X connect 23 2 95 0;
#X connect 24 0 25 0;
#X connect 24 1 40 0;
#X connect 25 0 27 0;
#X connect 26 0 28 1;
#X connect 27 0 28 0;
#X connect 27 1 26 0;
#X connect 28 0 29 0;
#X connect 29 0 39 0;
#X connect 30 0 2 0;
#X connect 31 0 3 0;
#X connect 32 0 4 0;
#X connect 33 0 5 0;
#X connect 34 0 6 0;
#X connect 35 0 7 0;
#X connect 36 0 8 0;
#X connect 37 0 9 0;
#X connect 39 0 30 0;
#X connect 39 1 31 0;
#X connect 39 2 32 0;
#X connect 39 3 33 0;
#X connect 39 4 34 0;
#X connect 39 5 35 0;
#X connect 39 6 36 0;
#X connect 39 7 37 0;
#X connect 39 8 38 0;
#X connect 40 0 43 0;
#X connect 41 0 1 0;
#X connect 42 0 1 0;
#X connect 43 0 46 0;
#X connect 44 1 1 0;
#X connect 46 0 44 0;
#X connect 46 1 43 1;
#X connect 47 0 43 1;
#X connect 48 0 0 0;
#X connect 49 0 0 0;
#X connect 50 0 52 0;
#X connect 52 0 0 0;
#X connect 52 1 50 1;
#X connect 53 0 50 1;
#X connect 55 0 16 0;
#X connect 55 1 12 0;
#X connect 55 2 14 0;
#X connect 55 3 13 0;
#X connect 55 4 61 0;
#X connect 55 5 20 0;
#X connect 55 6 21 0;
#X connect 58 0 60 0;
#X connect 61 0 17 0;
#X connect 63 0 62 0;
#X connect 64 0 70 0;
#X connect 64 1 67 1;
#X connect 65 0 64 0;
#X connect 66 0 64 0;
#X connect 67 0 64 0;
#X connect 69 0 64 0;
#X connect 70 0 71 0;
#X connect 71 0 76 0;
#X connect 71 2 96 0;
#X connect 73 0 67 0;
#X connect 73 1 65 0;
#X connect 73 2 69 0;
#X connect 73 3 66 0;
#X connect 73 4 63 0;
#X connect 73 5 58 0;
#X connect 73 6 59 0;
#X connect 73 7 74 0;
#X connect 74 0 75 0;
#X connect 76 0 79 0;
#X connect 76 1 77 0;
#X connect 77 0 78 0;
#X connect 78 0 77 1;
#X connect 78 0 80 0;
#X connect 79 0 82 0;
#X connect 80 0 79 1;
#X connect 81 0 84 0;
#X connect 81 1 90 0;
#X connect 81 2 97 0;
#X connect 82 0 81 0;
#X connect 84 0 85 0;
#X connect 85 0 56 0;
#X connect 85 1 84 1;
#X connect 86 0 84 1;
#X connect 87 0 56 0;
#X connect 88 0 56 0;
#X connect 89 0 77 1;
#X connect 90 0 91 0;
#X connect 91 0 57 0;
#X connect 91 1 90 1;
#X connect 92 0 90 1;
#X connect 93 0 57 0;
#X connect 94 0 57 0;
#X connect 98 0 55 0;
#X connect 98 1 73 0;
#X restore 602 290 pd My_RSP_excelParsingInit;
#X f 166;
#X obj 54 1343 zl nth;
#X obj 602 239 r excelParseInitBang;
#X obj 12 26 inlet startS1;
#X obj 112 26 inlet selS1;
#X obj 223 28 inlet startS2;
#X obj 323 28 inlet selS2;
#X obj 444 27 inlet startS3;
#X obj 530 27 inlet selS3;
#X obj 664 25 inlet startS4;
#X obj 761 25 inlet selS4;
#X obj 894 25 inlet startS5;
#X obj 994 25 inlet selS5;
#X obj 1145 25 inlet startS6;
#X obj 1245 25 inlet selS6;
#X obj 1377 25 inlet startS7;
#X obj 1474 25 inlet selS7;
#X obj 1601 24 inlet startS8;
#X obj 1698 24 inlet selS8;
#X obj 342 167 s inletId;
#X obj 323 197 s nameIdQuery;
#X obj 254 451 zl sub;
#X obj 254 361 r nameIdQuery;
#X symbolatom 328 393 30 0 0 0 - - -;
#X obj 254 396 t b s, f 6;
#X obj 282 555 r inletId;
#X obj 254 1095 route 1 2 3 4 5 6 7 8, f 210;
#X msg 342 146 2;
#X text 51 1372 isPlaying1;
#X msg 87 1290 \$1 true;
#X obj 54 1267 t b f, f 6;
#X obj 18 1396 print l1;
#X obj 74 1396 print r1;
#X obj 223 56 t s b b;
#X obj 260 102 s queryId;
#X msg 262 81 0;
#X obj 254 623 pack f f f;
#X obj 311 586 r queryId;
#X text 377 585 queryId = 0 = starting a sample \; queryId = 1 = selecting
a sample = harmony detection;
#X text 315 643 \$3 = queryId \; \$2 = inletId \; \$1 = sampleId from
list;
#X obj 323 56 t s b b;
#X obj 360 104 s queryId;
#X msg 362 83 1;
#X obj 549 172 s inletId;
#X obj 530 197 s nameIdQuery;
#X obj 444 61 t s b b;
#X obj 481 107 s queryId;
#X msg 483 86 0;
#X obj 530 61 t s b b;
#X obj 567 109 s queryId;
#X msg 569 88 1;
#X msg 549 151 3;
#X obj 780 172 s inletId;
#X obj 761 197 s nameIdQuery;
#X obj 664 61 t s b b;
#X obj 701 107 s queryId;
#X msg 703 86 0;
#X obj 761 61 t s b b;
#X obj 798 109 s queryId;
#X msg 800 88 1;
#X msg 780 151 4;
#X obj 1013 172 s inletId;
#X obj 994 197 s nameIdQuery;
#X obj 894 61 t s b b;
#X obj 931 107 s queryId;
#X msg 933 86 0;
#X obj 994 61 t s b b;
#X obj 1031 109 s queryId;
#X msg 1033 88 1;
#X msg 1013 151 5;
#X obj 1264 172 s inletId;
#X obj 1245 197 s nameIdQuery;
#X obj 1145 61 t s b b;
#X obj 1182 107 s queryId;
#X msg 1184 86 0;
#X obj 1245 61 t s b b;
#X obj 1282 109 s queryId;
#X msg 1284 88 1;
#X msg 1264 151 6;
#X obj 1493 171 s inletId;
#X obj 1474 196 s nameIdQuery;
#X obj 1377 60 t s b b;
#X obj 1414 106 s queryId;
#X msg 1416 85 0;
#X obj 1474 60 t s b b;
#X obj 1511 108 s queryId;
#X msg 1513 87 1;
#X msg 1493 150 7;
#X obj 1777 172 s inletId;
#X obj 1698 197 s nameIdQuery;
#X obj 1601 61 t s b b;
#X obj 1638 107 s queryId;
#X msg 1640 86 0;
#X obj 1698 61 t s b b;
#X obj 1795 109 s queryId;
#X msg 1797 88 1;
#X msg 1777 151 8;
#X obj 131 176 s inletId;
#X obj 112 201 s nameIdQuery;
#X obj 12 65 t s b b;
#X obj 49 111 s queryId;
#X msg 51 90 0;
#X obj 112 65 t s b b;
#X obj 149 113 s queryId;
#X msg 151 92 1;
#X msg 131 155 1;
#X text 533 1046 remember which sampleId \; is set to true;
#X floatatom 535 1000 5 0 0 0 - - -;
#X text 123 448 get index in list \; for a given sample \; name;
#X obj 1764 1324 zl sub;
#X text 1474 1302 conflicts list column 1;
#X text 1744 1302 conflicts list column 2;
#X msg 254 653 \$3 \$2 \$1;
#X obj 254 684 route 0 1, f 162;
#X text 279 731 0 = starting a sample \; > output id of starting \;
sample. \; 1 = selecting a sample \; > output id of selected sample
and do harmony \; detection;
#X obj 535 1027 s lastPlayedSample2;
#X obj 1528 793 unpack f f;
#X text 1644 793 left = inlet Id \; right = sampleId;
#X text 271 1075 route inlet ids;
#X obj 1561 1133 r bangConfList1;
#X obj 1512 1556 s indexesOfOccuranceList1;
#X obj 1857 1198 r indexesOfOccuranceList1;
#X obj 1857 1234 t b f;
#X obj 1533 1050 r modeConfList1;
#X obj 1764 1098 r modeConfList2;
#X obj 1624 1277 r playingIdConfList1;
#X obj 1764 1558 s conflictValuesForPlayingId;
#X obj 738 1893 r conflictValuesForPlayingId;
#X obj 738 1950 list prepend;
#X obj 738 1972 t a a;
#X obj 807 1805 r clearListBang;
#X obj 840 2068 r clearList;
#X obj 738 2068 r setZlSize;
#X obj 678 2206 print links;
#X obj 758 2181 print rechts;
#X obj 738 2125 zl sub;
#X obj 703 2093 bng 15 250 50 0 empty empty empty 17 7 0 10 -262144
-1 -1;
#X msg 899 1952 12;
#X msg 580 1172 1;
#X obj 754 1530 send;
#X msg 818 1368 modeConfList;
#X obj 818 1489 pack s f;
#X msg 818 1515 symbol \$1\$2;
#X obj 580 1192 s listSwitchCount;
#X obj 863 1398 r listSwitchCount;
#X obj 863 1425 moses 2;
#X msg 863 1456 2;
#X msg 902 1456 1;
#X msg 526 1172 2;
#X obj 654 1748 send;
#X msg 678 1568 modeConfList;
#X obj 678 1689 pack s f;
#X msg 678 1715 symbol \$1\$2;
#X obj 723 1598 r listSwitchCount;
#X obj 723 1625 moses 2;
#X msg 762 1656 2;
#X msg 723 1656 1;
#X msg 495 1473 playingIdConfList;
#X obj 495 1599 pack s f;
#X msg 495 1625 symbol \$1\$2;
#X obj 540 1508 r listSwitchCount;
#X obj 540 1535 moses 2;
#X msg 579 1566 2;
#X msg 540 1566 1;
#X obj 471 1707 send;
#X obj 305 1609 pack s f;
#X msg 305 1635 symbol \$1\$2;
#X obj 350 1518 r listSwitchCount;
#X obj 350 1545 moses 2;
#X msg 389 1576 2;
#X msg 350 1576 1;
#X obj 253 1696 send;
#X msg 305 1483 bangConfList;
#X obj 1777 1160 r bangConfList2;
#X obj 1557 1401 r listSwitchCount;
#X obj 1512 1433 pack f f;
#X msg 1512 1468 \$2 \$1;
#X obj 1512 1504 route 1 2;
#X obj 1789 1538 s indexesOfOccuranceList2;
#X obj 1537 1533 s conflictValuesForPlayingId;
#X obj 1922 1265 r playingIdConfList2;
#X obj 1764 1508 route 1 2;
#X obj 1809 1410 r listSwitchCount;
#X obj 1764 1438 pack f f;
#X obj 1590 1199 r indexesOfOccuranceList2;
#X obj 1590 1223 t b f;
#X msg 1764 1467 \$2 \$1;
#X text 1806 1459 \$2 = listSwitchCount \; \$1 = index of occurance
in list for given sample Id \; or sampleId at given index \, depending
on listSwitchCount;
#X obj 713 1997 print conflictlist;
#X obj 833 1838 r clearConfList;
#X obj 880 2096 r clearConfList;
#X msg 880 2121 zlclear;
#X obj 638 1159 s clearConfList;
#X obj 529 1135 t f b f b b;
#X obj 738 1925 print conflict values;
#X floatatom 1944 1298 5 0 0 0 - - -;
#X obj 1764 1119 print modeConfList2;
#X obj 1541 1082 print modeConfList1;
#X obj 1594 1328 print playingIdConfList1;
#X obj 1550 1164 print bangConfList1;
#X obj 1547 1375 print indexesOfOccurance;
#X obj 1481 1261 bng 15 250 50 0 empty empty empty 17 7 0 10 -262144
-1 -1;
#X obj 1781 1378 print valuesforList2;
#X obj 1659 1230 print indexesofOccuranceLIst2;
#X msg 754 1367 mode nth;
#X msg 654 1535 mode sub;
#X obj 1512 1332 zl sub;
#X obj 472 1246 t b b f b b b b b b, f 62;
#X msg 850 1289 1;
#X obj 850 1310 s listSwitchCount;
#X connect 3 0 0 0;
#X connect 3 1 24 0;
#X connect 3 2 4 0;
#X connect 3 10 209 0;
#X connect 3 11 112 0;
#X connect 4 0 34 0;
#X connect 4 1 35 0;
#X connect 5 0 3 0;
#X connect 6 0 102 0;
#X connect 7 0 105 0;
#X connect 8 0 36 0;
#X connect 9 0 43 0;
#X connect 10 0 48 0;
#X connect 11 0 51 0;
#X connect 12 0 57 0;
#X connect 13 0 60 0;
#X connect 14 0 66 0;
#X connect 15 0 69 0;
#X connect 16 0 75 0;
#X connect 17 0 78 0;
#X connect 18 0 84 0;
#X connect 19 0 87 0;
#X connect 20 0 93 0;
#X connect 21 0 96 0;
#X connect 24 0 39 0;
#X connect 25 0 26 0;
#X connect 25 0 27 0;
#X connect 27 0 24 0;
#X connect 27 1 24 1;
#X connect 28 0 39 1;
#X connect 29 0 33 0;
#X connect 29 1 210 0;
#X connect 30 0 22 0;
#X connect 32 0 4 1;
#X connect 33 0 4 0;
#X connect 33 1 32 0;
#X connect 36 0 23 0;
#X connect 36 1 30 0;
#X connect 36 2 38 0;
#X connect 38 0 37 0;
#X connect 39 0 115 0;
#X connect 40 0 39 2;
#X connect 43 0 23 0;
#X connect 43 1 30 0;
#X connect 43 2 45 0;
#X connect 45 0 44 0;
#X connect 48 0 47 0;
#X connect 48 1 54 0;
#X connect 48 2 50 0;
#X connect 50 0 49 0;
#X connect 51 0 47 0;
#X connect 51 1 54 0;
#X connect 51 2 53 0;
#X connect 53 0 52 0;
#X connect 54 0 46 0;
#X connect 57 0 56 0;
#X connect 57 1 63 0;
#X connect 57 2 59 0;
#X connect 59 0 58 0;
#X connect 60 0 56 0;
#X connect 60 1 63 0;
#X connect 60 2 62 0;
#X connect 62 0 61 0;
#X connect 63 0 55 0;
#X connect 66 0 65 0;
#X connect 66 1 72 0;
#X connect 66 2 68 0;
#X connect 68 0 67 0;
#X connect 69 0 65 0;
#X connect 69 1 72 0;
#X connect 69 2 71 0;
#X connect 71 0 70 0;
#X connect 72 0 64 0;
#X connect 75 0 74 0;
#X connect 75 1 81 0;
#X connect 75 2 77 0;
#X connect 77 0 76 0;
#X connect 78 0 74 0;
#X connect 78 1 81 0;
#X connect 78 2 80 0;
#X connect 80 0 79 0;
#X connect 81 0 73 0;
#X connect 84 0 83 0;
#X connect 84 1 90 0;
#X connect 84 2 86 0;
#X connect 86 0 85 0;
#X connect 87 0 83 0;
#X connect 87 1 90 0;
#X connect 87 2 89 0;
#X connect 89 0 88 0;
#X connect 90 0 82 0;
#X connect 93 0 92 0;
#X connect 93 1 99 0;
#X connect 93 2 95 0;
#X connect 95 0 94 0;
#X connect 96 0 92 0;
#X connect 96 1 99 0;
#X connect 96 2 98 0;
#X connect 98 0 97 0;
#X connect 99 0 91 0;
#X connect 102 0 101 0;
#X connect 102 1 108 0;
#X connect 102 2 104 0;
#X connect 104 0 103 0;
#X connect 105 0 101 0;
#X connect 105 1 108 0;
#X connect 105 2 107 0;
#X connect 107 0 106 0;
#X connect 108 0 100 0;
#X connect 110 0 118 0;
#X connect 115 0 116 0;
#X connect 116 0 29 0;
#X connect 116 1 119 0;
#X connect 122 0 202 0;
#X connect 122 0 209 0;
#X connect 124 0 125 0;
#X connect 125 0 112 0;
#X connect 125 1 112 1;
#X connect 126 0 200 0;
#X connect 126 0 209 0;
#X connect 127 0 112 0;
#X connect 127 0 199 0;
#X connect 128 0 201 0;
#X connect 128 0 209 1;
#X connect 131 0 132 0;
#X connect 132 0 191 0;
#X connect 132 1 131 1;
#X connect 133 0 131 1;
#X connect 134 0 138 0;
#X connect 135 0 138 0;
#X connect 138 0 136 0;
#X connect 138 1 137 0;
#X connect 139 0 138 0;
#X connect 140 0 138 1;
#X connect 141 0 146 0;
#X connect 143 0 144 0;
#X connect 144 0 145 0;
#X connect 145 0 142 1;
#X connect 147 0 148 0;
#X connect 148 0 149 0;
#X connect 148 1 150 0;
#X connect 149 0 144 1;
#X connect 150 0 144 1;
#X connect 153 0 154 0;
#X connect 154 0 155 0;
#X connect 155 0 152 1;
#X connect 156 0 157 0;
#X connect 157 0 159 0;
#X connect 157 1 158 0;
#X connect 158 0 154 1;
#X connect 159 0 154 1;
#X connect 160 0 161 0;
#X connect 161 0 162 0;
#X connect 162 0 167 1;
#X connect 163 0 164 0;
#X connect 164 0 166 0;
#X connect 164 1 165 0;
#X connect 165 0 161 1;
#X connect 166 0 161 1;
#X connect 168 0 169 0;
#X connect 169 0 174 1;
#X connect 170 0 171 0;
#X connect 171 0 173 0;
#X connect 171 1 172 0;
#X connect 172 0 168 1;
#X connect 173 0 168 1;
#X connect 175 0 168 0;
#X connect 176 0 112 0;
#X connect 177 0 178 1;
#X connect 178 0 179 0;
#X connect 179 0 180 0;
#X connect 180 0 123 0;
#X connect 180 1 182 0;
#X connect 183 0 112 1;
#X connect 183 0 198 0;
#X connect 184 0 129 0;
#X connect 184 1 181 0;
#X connect 185 0 186 1;
#X connect 186 0 189 0;
#X connect 187 0 188 0;
#X connect 187 0 206 0;
#X connect 188 0 209 0;
#X connect 188 1 209 1;
#X connect 189 0 184 0;
#X connect 192 0 131 1;
#X connect 193 0 194 0;
#X connect 194 0 138 1;
#X connect 196 1 151 0;
#X connect 204 0 209 0;
#X connect 207 0 142 0;
#X connect 208 0 152 0;
#X connect 209 0 203 0;
#X connect 210 0 174 0;
#X connect 210 1 175 0;
#X connect 210 2 167 0;
#X connect 210 3 160 0;
#X connect 210 4 208 0;
#X connect 210 5 153 0;
#X connect 210 6 207 0;
#X connect 210 7 143 0;
#X connect 210 8 211 0;
#X connect 211 0 212 0;
