#N canvas 0 93 1280 627 10;
#X obj 12 375 zl nth;
#X text 46 338 contains list of \; all sample_ids;
#X text 305 467 contains list of \; all sample names;
#N canvas 35 62 1161 579 My_RSP_excelParsingInit 0;
#X obj 58 576 outlet ids;
#X obj 353 577 outlet samplenames;
#X obj 58 18 inlet init;
#X obj 58 219 textfile, f 13;
#X msg 152 127 rewind;
#X msg 341 96 clear;
#X obj 530 123 s clearList;
#X obj 58 166 until;
#X obj 436 122 s setZlSize;
#X obj 58 257 list-drip;
#X text 161 246 some lines are output as lists \, some are not. \;
We need to serialize the lists with drip \; in order to route them
;
#X msg 530 102 zlclear;
#X obj 625 105 s clearListBang;
#X text 163 216 read csv file specified above;
#X obj 58 290 route float symbol, f 31;
#X msg 319 395 \$1;
#X obj 393 534 r clearList;
#X obj 385 514 r setZlSize;
#X obj 319 422 list prepend;
#X obj 319 446 t a a;
#X obj 400 387 r clearListBang;
#X obj 97 537 r clearList;
#X obj 87 518 r setZlSize;
#X obj 58 420 list prepend;
#X text 138 427 build a list from stream of \; single excel entries
;
#X obj 58 442 t a a;
#X obj 127 395 r clearListBang;
#X obj 58 69 t b b b b b b b, f 95;
#X obj 793 568 outlet conflictsColumn1;
#X obj 986 569 outlet conflictsColumn2;
#X msg 1309 115 zlclear;
#X obj 1412 136 s clearListBang2;
#X obj 1309 136 s clearConfList;
#X msg 436 102 zlmaxsize 1024;
#X obj 1206 134 s setConfZlSize;
#X msg 1206 114 zlmaxsize 8192;
#X obj 793 209 textfile, f 13;
#X msg 896 135 rewind;
#X msg 1102 112 clear;
#X obj 793 116 until;
#X text 898 206 read csv file specified above;
#X obj 793 234 list-drip;
#X obj 793 256 route float symbol, f 32;
#X text 1063 255 the headings of the csv list are symbols.. \; discard
them. We only want floats.;
#X obj 793 68 t b b b b b b b b, f 121;
#X msg 1516 117 0;
#X obj 1516 137 s initConfListCounter;
#X obj 793 277 t f b;
#X obj 820 305 f 0;
#X obj 850 305 + 1;
#X obj 793 362 pack f f, f 10;
#X obj 850 328 % 2;
#X obj 793 421 route 1 0, f 65;
#X msg 793 385 \$2 \$1;
#X text 862 357 Here we route the sampleIds that belong to the same
index of the list into two different zl nth objects 1 = output SampleId
in column "sample_id_1" for index xy \; 0 = output SampleId in column
"sample_id_2" for the same index xy \;;
#X obj 793 472 list prepend;
#X obj 793 494 t a a;
#X obj 862 447 r clearListBang2;
#X obj 835 539 r clearConfList;
#X obj 825 520 r setConfZlSize;
#X obj 835 284 r initConfListCounter;
#X obj 986 472 list prepend;
#X obj 986 494 t a a;
#X obj 1055 447 r clearListBang2;
#X obj 1063 539 r clearConfList;
#X obj 1053 520 r setConfZlSize;
#X obj 241 324 print ERROR while routing contents of sample name textfile
;
#X obj 982 290 print ERROR while routing contents of conflicts textfile
via float & symbol;
#X obj 1180 454 print ERROR while routing contents of conflicts textfile
via 1 & 0;
#X obj 58 44 t b b;
#X msg 247 123 read samples.csv;
#X obj 319 472 list split 2;
#X text 403 466 cut the first 2 elements of the list \; as they are
just the headings of the \; excel table.;
#X text 249 289 distinguish sample ids and sample names.;
#X msg 999 133 read conflicts.csv;
#X text 1249 9 5th April 2019 \; In this patch we parse the contents
of the samples.csv and conflicts.csv files into zl objects located
in the parent patch. This is the first step for the systems's dissonance
detection feature.;
#X connect 2 0 69 0;
#X connect 3 0 9 0;
#X connect 3 1 7 1;
#X connect 4 0 3 0;
#X connect 5 0 3 0;
#X connect 7 0 3 0;
#X connect 9 0 14 0;
#X connect 11 0 6 0;
#X connect 14 0 23 0;
#X connect 14 1 15 0;
#X connect 14 2 66 0;
#X connect 15 0 18 0;
#X connect 16 0 1 0;
#X connect 17 0 1 0;
#X connect 18 0 19 0;
#X connect 19 0 71 0;
#X connect 19 1 18 1;
#X connect 20 0 18 1;
#X connect 21 0 0 0;
#X connect 22 0 0 0;
#X connect 23 0 25 0;
#X connect 25 0 0 0;
#X connect 25 1 23 1;
#X connect 26 0 23 1;
#X connect 27 0 7 0;
#X connect 27 1 4 0;
#X connect 27 2 70 0;
#X connect 27 3 5 0;
#X connect 27 4 33 0;
#X connect 27 5 11 0;
#X connect 27 6 12 0;
#X connect 30 0 32 0;
#X connect 33 0 8 0;
#X connect 35 0 34 0;
#X connect 36 0 41 0;
#X connect 36 1 39 1;
#X connect 37 0 36 0;
#X connect 38 0 36 0;
#X connect 39 0 36 0;
#X connect 41 0 42 0;
#X connect 42 0 47 0;
#X connect 42 2 67 0;
#X connect 44 0 39 0;
#X connect 44 1 37 0;
#X connect 44 2 74 0;
#X connect 44 3 38 0;
#X connect 44 4 35 0;
#X connect 44 5 30 0;
#X connect 44 6 31 0;
#X connect 44 7 45 0;
#X connect 45 0 46 0;
#X connect 47 0 50 0;
#X connect 47 1 48 0;
#X connect 48 0 49 0;
#X connect 49 0 48 1;
#X connect 49 0 51 0;
#X connect 50 0 53 0;
#X connect 51 0 50 1;
#X connect 52 0 55 0;
#X connect 52 1 61 0;
#X connect 52 2 68 0;
#X connect 53 0 52 0;
#X connect 55 0 56 0;
#X connect 56 0 28 0;
#X connect 56 1 55 1;
#X connect 57 0 55 1;
#X connect 58 0 28 0;
#X connect 59 0 28 0;
#X connect 60 0 48 1;
#X connect 61 0 62 0;
#X connect 62 0 29 0;
#X connect 62 1 61 1;
#X connect 63 0 61 1;
#X connect 64 0 29 0;
#X connect 65 0 29 0;
#X connect 69 0 27 0;
#X connect 69 1 44 0;
#X connect 70 0 3 0;
#X connect 71 1 1 0;
#X connect 74 0 36 0;
#X restore 12 290 pd My_RSP_excelParsingInit;
#X f 166;
#X obj 12 239 r excelParseInitBang;
#X obj 12 26 inlet startS1;
#X obj 112 26 inlet selS1;
#X obj 223 28 inlet startS2;
#X obj 323 28 inlet selS2;
#X obj 444 27 inlet startS3;
#X obj 530 27 inlet selS3;
#X obj 664 25 inlet startS4;
#X obj 761 25 inlet selS4;
#X obj 894 25 inlet startS5;
#X obj 994 25 inlet selS5;
#X obj 1145 25 inlet startS6;
#X obj 1245 25 inlet selS6;
#X obj 1377 25 inlet startS7;
#X obj 1474 25 inlet selS7;
#X obj 1601 24 inlet startS8;
#X obj 1698 24 inlet selS8;
#X obj 342 167 s inletId;
#X obj 323 197 s nameIdQuery;
#X obj 254 491 zl sub;
#X obj 254 361 r nameIdQuery;
#X symbolatom 328 393 30 0 0 0 - - -;
#X obj 254 396 t b s, f 6;
#X obj 282 555 r inletId;
#X msg 342 146 2;
#X obj 223 56 t s b b;
#X obj 260 102 s queryId;
#X msg 262 81 0;
#X obj 254 623 pack f f f;
#X obj 311 586 r queryId;
#X text 377 585 queryId = 0 = starting a sample \; queryId = 1 = selecting
a sample = harmony detection;
#X text 315 643 \$3 = queryId \; \$2 = inletId \; \$1 = sampleId from
list;
#X obj 323 56 t s b b;
#X obj 360 104 s queryId;
#X msg 362 83 1;
#X obj 549 172 s inletId;
#X obj 530 197 s nameIdQuery;
#X obj 444 61 t s b b;
#X obj 481 107 s queryId;
#X msg 483 86 0;
#X obj 530 61 t s b b;
#X obj 567 109 s queryId;
#X msg 569 88 1;
#X msg 549 151 3;
#X obj 780 172 s inletId;
#X obj 761 197 s nameIdQuery;
#X obj 664 61 t s b b;
#X obj 701 107 s queryId;
#X msg 703 86 0;
#X obj 761 61 t s b b;
#X obj 798 109 s queryId;
#X msg 800 88 1;
#X msg 780 151 4;
#X obj 1013 172 s inletId;
#X obj 994 197 s nameIdQuery;
#X obj 894 61 t s b b;
#X obj 931 107 s queryId;
#X msg 933 86 0;
#X obj 994 61 t s b b;
#X obj 1031 109 s queryId;
#X msg 1033 88 1;
#X msg 1013 151 5;
#X obj 1264 172 s inletId;
#X obj 1245 197 s nameIdQuery;
#X obj 1145 61 t s b b;
#X obj 1182 107 s queryId;
#X msg 1184 86 0;
#X obj 1245 61 t s b b;
#X obj 1282 109 s queryId;
#X msg 1284 88 1;
#X msg 1264 151 6;
#X obj 1493 171 s inletId;
#X obj 1474 196 s nameIdQuery;
#X obj 1377 60 t s b b;
#X obj 1414 106 s queryId;
#X msg 1416 85 0;
#X obj 1474 60 t s b b;
#X obj 1511 108 s queryId;
#X msg 1513 87 1;
#X msg 1493 150 7;
#X obj 1777 172 s inletId;
#X obj 1698 197 s nameIdQuery;
#X obj 1601 61 t s b b;
#X obj 1638 107 s queryId;
#X msg 1640 86 0;
#X obj 1698 61 t s b b;
#X obj 1795 109 s queryId;
#X msg 1797 88 1;
#X msg 1777 151 8;
#X obj 131 176 s inletId;
#X obj 112 201 s nameIdQuery;
#X obj 12 65 t s b b;
#X obj 49 111 s queryId;
#X msg 51 90 0;
#X obj 112 65 t s b b;
#X obj 149 113 s queryId;
#X msg 151 92 1;
#X msg 131 155 1;
#X text 123 478 get index in list \; for a given sample \; name;
#X obj 1024 434 zl sub;
#X text 817 441 conflicts list column 1;
#X text 1071 436 conflicts list column 2;
#X obj 254 744 route 0 1, f 123;
#X text 279 763 0 = starting a sample \; > output id of starting \;
sample. \; 1 = selecting a sample \; > output id of selected sample
and do harmony \; detection;
#X obj 621 796 unpack f f;
#X obj 780 346 r bangConfList1;
#X obj 772 584 s indexesOfOccuranceList1;
#X obj 1045 360 r indexesOfOccuranceList1;
#X obj 1045 386 t b f;
#X obj 772 323 r modeConfList1;
#X obj 1024 310 r modeConfList2;
#X obj 833 412 r playingIdConfList1;
#X obj 24 1923 list prepend;
#X obj 93 1848 r clearListBang;
#X obj 44 2012 r clearList;
#X obj 34 1992 r setZlSize;
#X obj 24 2159 zl sub, f 16;
#X obj 890 1379 send;
#X msg 961 1199 modeConfList;
#X obj 911 1336 pack s f;
#X msg 911 1356 symbol \$1\$2;
#X obj 956 1245 r listSwitchCount;
#X obj 956 1272 moses 2;
#X msg 956 1303 2;
#X msg 995 1302 1;
#X obj 708 1382 send;
#X msg 775 1200 modeConfList;
#X obj 729 1326 pack s f;
#X msg 729 1352 symbol \$1\$2;
#X obj 774 1235 r listSwitchCount;
#X obj 774 1262 moses 2;
#X msg 803 1293 2;
#X msg 774 1293 1;
#X msg 547 1201 playingIdConfList;
#X obj 547 1327 pack s f;
#X msg 547 1353 symbol \$1\$2;
#X obj 592 1236 r listSwitchCount;
#X obj 592 1263 moses 2;
#X msg 631 1293 2;
#X msg 592 1294 1;
#X obj 526 1382 send;
#X obj 365 1323 pack s f;
#X msg 365 1349 symbol \$1\$2;
#X obj 410 1232 r listSwitchCount;
#X obj 410 1259 moses 2;
#X msg 470 1290 2;
#X msg 410 1290 1;
#X obj 344 1380 send;
#X msg 365 1197 bangConfList;
#X obj 1035 332 r bangConfList2;
#X obj 817 461 r listSwitchCount;
#X obj 772 483 pack f f;
#X msg 772 518 \$2 \$1;
#X obj 772 554 route 1 2;
#X obj 1049 588 s indexesOfOccuranceList2;
#X obj 1080 407 r playingIdConfList2;
#X obj 1024 558 route 1 2;
#X obj 1069 466 r listSwitchCount;
#X obj 1024 488 pack f f;
#X obj 790 372 r indexesOfOccuranceList2;
#X obj 790 396 t b f;
#X msg 1024 517 \$2 \$1;
#X text 1066 509 \$2 = listSwitchCount \; \$1 = index of occurance
in list for given sample Id \; or sampleId at given index \, depending
on listSwitchCount;
#X msg 50 2053 zlclear;
#X msg 890 1199 mode nth;
#X msg 708 1199 mode sub;
#X obj 772 442 zl sub;
#X obj 1072 1273 s listSwitchCount;
#X obj 1106 1249 + 1;
#X obj 269 1418 r listSwitchCount;
#X obj 254 1440 f 0;
#X obj 252 1460 moses 2;
#X obj 252 1572 s doItAgain;
#X obj 264 1133 r doItAgain;
#X obj 1072 1249 f 1;
#X obj 252 1552 f 0;
#X obj 254 1156 t b b b f b b b b b b f, f 152;
#X obj 1163 1190 s sampleIdToPlay;
#X obj 267 1532 r sampleIdToPlay;
#X obj 252 1513 bang;
#X obj 291 1506 s resetListSwitchCount;
#X obj 1087 1226 r resetListSwitchCount;
#X msg 291 1482 1;
#X obj 254 856 unpack f f;
#X msg 254 653 \$3 \$1 \$2;
#X text 339 850 rechts: inlet id \; links sample id;
#X obj 797 721 send;
#X obj 818 635 t b f, f 24;
#X obj 818 680 pack s f, f 24;
#X msg 818 658 conflictValuesTrack;
#X msg 818 701 symbol \$1\$2;
#X obj 311 885 s confListInletId;
#X obj 818 612 r confListInletId;
#X obj 24 1801 r conflictValuesTrack1;
#X obj 304 1801 r conflictValuesTrack2;
#X obj 566 1801 r conflictValuesTrack3;
#X obj 841 1801 r conflictValuesTrack4;
#X obj 1121 1801 r conflictValuesTrack5;
#X obj 1384 1801 r conflictValuesTrack6;
#X obj 1665 1801 r conflictValuesTrack7;
#X obj 1933 1801 r conflictValuesTrack8;
#X obj 302 955 t b f, f 24;
#X obj 302 1000 pack s f, f 24;
#X msg 302 1021 symbol \$1\$2;
#X obj 302 933 r confListInletId;
#X msg 302 978 clearConfList;
#X obj 103 1870 r clearConfList1;
#X obj 103 1891 print clearConfList1;
#X obj 254 901 t f b;
#X obj 281 1051 send;
#X obj 24 1943 t a;
#X obj 304 1903 list prepend;
#X obj 373 1828 r clearListBang;
#X obj 304 1923 t a;
#X obj 383 1871 print clearConfList2;
#X obj 383 1850 r clearConfList2;
#X obj 50 2034 r clearConfList1;
#X obj 324 1992 r clearList;
#X obj 314 1972 r setZlSize;
#X obj 304 2159 zl sub, f 17;
#X msg 330 2033 zlclear;
#X obj 330 2014 r clearConfList2;
#X obj 566 1908 list prepend;
#X obj 635 1833 r clearListBang;
#X obj 586 1997 r clearList;
#X obj 576 1977 r setZlSize;
#X obj 566 2154 zl sub, f 16;
#X msg 592 2038 zlclear;
#X obj 566 1928 t a;
#X obj 434 2180 print occ2;
#X obj 336 2189 print atindex2;
#X obj 618 2188 print atindex3;
#X obj 709 2189 print occ3;
#X obj 592 2019 r clearConfList3;
#X obj 645 1855 r clearConfList3;
#X obj 645 1876 print clearConfList3;
#X obj 841 1908 list prepend;
#X obj 910 1833 r clearListBang;
#X obj 861 2007 r clearList;
#X obj 851 1987 r setZlSize;
#X obj 841 2154 zl sub, f 18;
#X msg 867 2048 zlclear;
#X obj 841 1928 t a;
#X obj 920 1855 r clearConfList4;
#X obj 920 1876 print clearConfList4;
#X obj 867 2029 r clearConfList4;
#X obj 887 2182 print atindex4;
#X obj 978 2183 print occ4;
#X obj 1121 1908 list prepend;
#X obj 1190 1833 r clearListBang;
#X obj 1141 1997 r clearList;
#X obj 1131 1977 r setZlSize;
#X obj 1121 2153 zl sub, f 17;
#X msg 1147 2038 zlclear;
#X obj 1121 1928 t a;
#X obj 1200 1855 r clearConfList5;
#X obj 1200 1876 print clearConfList5;
#X obj 1147 2019 r clearConfList5;
#X obj 1158 2179 print atindex5;
#X obj 1249 2180 print occ5;
#X obj 1384 1908 list prepend;
#X obj 1453 1833 r clearListBang;
#X obj 1404 1997 r clearList;
#X obj 1394 1977 r setZlSize;
#X obj 1384 2154 zl sub, f 16;
#X msg 1410 2038 zlclear;
#X obj 1463 1855 r clearConfList6;
#X obj 1463 1876 print clearConfList6;
#X obj 1410 2019 r clearConfList6;
#X obj 1427 2190 print atindex6;
#X obj 1518 2191 print occ6;
#X obj 1384 1929 t a;
#X obj 1665 1908 list prepend;
#X obj 1734 1833 r clearListBang;
#X obj 1685 1997 r clearList;
#X obj 1675 1977 r setZlSize;
#X obj 1665 2154 zl sub, f 17;
#X msg 1691 2038 zlclear;
#X obj 1665 1929 t a;
#X obj 1744 1855 r clearConfList7;
#X obj 1744 1876 print clearConfList7;
#X obj 1691 2019 r clearConfList7;
#X obj 1688 2183 print atindex7;
#X obj 1779 2184 print occ7;
#X obj 1933 1907 list prepend;
#X obj 2002 1832 r clearListBang;
#X obj 1953 1992 r clearList;
#X obj 1943 1972 r setZlSize;
#X obj 1933 2154 zl sub, f 16;
#X msg 1959 2033 zlclear;
#X obj 1933 1928 t a;
#X obj 2012 1854 r clearConfList8;
#X obj 2012 1875 print clearConfList8;
#X obj 1959 2014 r clearConfList8;
#X obj 2015 2178 print atindex8;
#X obj 2106 2179 print occ8;
#N canvas 553 138 587 548 My_RSP_CounterWithGap 0;
#X obj 21 26 inlet numberToCountTo;
#X obj 187 28 inlet numberToGap;
#X obj 21 162 until;
#X obj 55 217 + 1;
#X obj 36 189 r resetGapCounter;
#X obj 48 106 s numberToCountUpTo;
#X obj 201 321 r numberToCountUpTo;
#X obj 186 349 ==;
#X obj 186 374 moses 1;
#X obj 225 396 s resetGapCounter;
#X obj 21 218 f 1;
#X obj 187 105 s numberToGapOver;
#X obj 69 321 r numberToGapOver;
#X obj 21 451 outlet countingStreamWithGap;
#X obj 21 84 t f f;
#X obj 21 244 t f f f, f 28;
#X obj 54 343 !=;
#X obj 21 373 spigot;
#X text 410 37 30th March 2019 \; This subpatch counts up \; to a given
number but skips \; the number specified at the \; second inlet. \;
Caution: The order of the incoming \; numbers has to be set corretly
\; in the parent patch.;
#X connect 0 0 14 0;
#X connect 1 0 11 0;
#X connect 2 0 10 0;
#X connect 3 0 10 1;
#X connect 4 0 10 1;
#X connect 6 0 7 1;
#X connect 7 0 8 0;
#X connect 8 1 9 0;
#X connect 10 0 3 0;
#X connect 10 0 15 0;
#X connect 12 0 16 1;
#X connect 14 0 2 0;
#X connect 14 1 5 0;
#X connect 15 0 17 0;
#X connect 15 1 16 0;
#X connect 15 2 7 0;
#X connect 16 0 17 1;
#X connect 17 0 13 0;
#X restore 621 905 pd My_RSP_CounterWithGap;
#X msg 621 877 8;
#X obj 621 1063 send, f 6;
#X obj 669 1016 pack s f, f 14;
#X msg 669 992 selectingId;
#X obj 54 2097 r selectingId1;
#X obj 199 2092 print selid1;
#X msg 669 1042 symbol \$1\$2;
#X obj 621 1028 f;
#X obj 621 936 t b b f, f 22;
#X msg 621 775 \$2 \$1;
#X text 734 803 rechts = sample ID \; links = inlet ID;
#X obj 54 2118 t b f, f 11;
#X obj 204 2166 print occ1;
#X obj 164 2191 print atindex1;
#X obj 340 2118 t b f, f 11;
#X obj 429 2122 print selid2;
#X obj 340 2097 r selectingId2;
#X obj 596 2098 t b f, f 11;
#X obj 596 2077 r selectingId3;
#X obj 685 2102 print selid3;
#X obj 883 2108 t b f, f 11;
#X obj 883 2087 r selectingId4;
#X obj 972 2112 print selid4;
#X obj 1157 2108 t b f, f 11;
#X obj 1157 2087 r selectingId5;
#X obj 1246 2112 print selid5;
#X obj 1414 2109 t b f, f 11;
#X obj 1414 2088 r selectingId6;
#X obj 1503 2113 print selid6;
#X obj 1701 2119 t b f, f 11;
#X obj 1701 2098 r selectingId7;
#X obj 1790 2123 print selid7;
#X obj 1963 2119 t b f, f 11;
#X obj 1963 2098 r selectingId8;
#X obj 2052 2123 print selid8;
#X obj 305 2407 wiringPi_gpio 22 0 0;
#X msg 517 2346 1;
#X obj 305 2383 spigot, f 29;
#X obj 304 2281 s activeAlarmList;
#X msg 304 2258 2;
#X obj 304 2226 t b b, f 36;
#X obj 759 1460 r activeAlarmList;
#X msg 759 1483 prepend \$1;
#X obj 759 1553 list store;
#X text 824 1544 list of inletIDs which are active showing a harmony
Alarm.;
#X obj 621 849 t b f b, f 24;
#X obj 762 873 s stopActiveLeds;
#X text 825 1557 bang in right inlet = clearing list;
#X obj 773 1509 r stopActiveLeds;
#X obj 759 1576 t b a;
#X obj 786 1600 list-drip;
#X obj 786 1627 t b b f, f 20;
#X obj 844 1678 pack s f, f 10;
#X msg 844 1655 stopLed;
#X msg 844 1701 symbol \$1\$2;
#X obj 786 1730 send;
#X msg 786 1690 0;
#X obj 449 2318 r stopLed2;
#X obj 449 2343 t f f;
#X text 436 2407 Red Harmony LED 1;
#X msg 237 2346 1;
#X obj 25 2383 spigot, f 29;
#X obj 24 2281 s activeAlarmList;
#X obj 169 2343 t f f;
#X msg 24 2258 1;
#X obj 169 2298 r stopLed1;
#X obj 25 2407 wiringPi_gpio 23 0 0;
#X text 156 2407 Blue Harmony LED 1;
#X obj 24 2226 t b b, f 36;
#X msg 779 2347 1;
#X obj 567 2384 spigot, f 29;
#X obj 566 2282 s activeAlarmList;
#X obj 566 2227 t b b, f 36;
#X obj 711 2344 t f f;
#X msg 566 2259 3;
#X obj 711 2319 r stopLed3;
#X text 698 2408 Yellow Harmony LED 1;
#X msg 1054 2357 1;
#X obj 842 2394 spigot, f 29;
#X obj 841 2292 s activeAlarmList;
#X obj 841 2237 t b b, f 36;
#X obj 986 2354 t f f;
#X msg 841 2269 4;
#X obj 986 2329 r stopLed4;
#X obj 842 2418 wiringPi_gpio 30 0 0;
#X text 973 2418 Green Harmony LED 1;
#X msg 1334 2355 1;
#X obj 1122 2392 spigot, f 29;
#X obj 1121 2290 s activeAlarmList;
#X obj 1121 2235 t b b, f 36;
#X obj 1266 2352 t f f;
#X msg 1121 2267 5;
#X obj 1266 2327 r stopLed5;
#X obj 1122 2416 wiringPi_gpio 14 0 0;
#X msg 1597 2355 1;
#X obj 1385 2392 spigot, f 29;
#X obj 1384 2290 s activeAlarmList;
#X obj 1384 2235 t b b, f 36;
#X obj 1529 2352 t f f;
#X msg 1384 2267 6;
#X obj 1529 2327 r stopLed6;
#X text 1253 2416 Blue Harmony LED 2;
#X obj 1385 2416 wiringPi_gpio 13 0 0;
#X msg 1878 2353 1;
#X obj 1666 2390 spigot, f 29;
#X obj 1665 2288 s activeAlarmList;
#X obj 1665 2233 t b b, f 36;
#X obj 1810 2350 t f f;
#X msg 1665 2265 7;
#X obj 1810 2325 r stopLed7;
#X text 1516 2416 Red Harmony LED 2;
#X text 1797 2414 Yellow Harmony LED 2;
#X msg 2146 2353 1;
#X obj 1934 2390 spigot, f 29;
#X obj 1933 2288 s activeAlarmList;
#X obj 1933 2233 t b b, f 36;
#X obj 2078 2350 t f f;
#X msg 1933 2265 8;
#X obj 2078 2325 r stopLed8;
#X obj 1666 2414 wiringPi_gpio 12 0 0;
#X text 2065 2414 Green Harmony LED 2;
#X obj 1934 2414 wiringPi_gpio 3 0 0;
#X obj 567 2408 wiringPi_gpio 0 0 0;
#X text 1439 255 5th April 2019 \; This patch is activated by either
one of the play buttons or one of the endless knobs that selects new
samples. \; When a play button is pressed on track XY then we generate
a conflict list for this track XY. The conflict list contains the sample
indexes from samples.csv that have a dissonance conflict with the sample
id that has just been pressed "play for on track XY. The conflict list
is built upon the content of the conflicts.csv file \; When an endless
knob is turned for selecting a new sample then the currently selected
sample id is given into the conflict lists of the other tracks. When
the selected sample id is present in one conlict lists \, then we have
a dissonance conflict and we show this by blinking the led for that
track that has a sample playing and has the selected sample id in its
conflict list. \; One has to be aware that when there is a dissonance
Alarm detected and you select a sample on another track \, then the
just detected dissonance alarm is overwritten and will not be shown
again until you re-select that sample id on the former track. Thus
\, you should always concentrate on one track \, select a new sample
\, play it when there is no dissonance detection and then go to another
track and select a new sample there.;
#X obj 169 2319 print stopled;
#X obj 25 2333 r harmonyLedToggle;
#X obj 305 2343 r harmonyLedToggle;
#X obj 567 2353 r harmonyLedToggle;
#X obj 842 2354 r harmonyLedToggle;
#X obj 1122 2352 r harmonyLedToggle;
#X obj 1385 2352 r harmonyLedToggle;
#X obj 1666 2350 r harmonyLedToggle;
#X obj 1934 2350 r harmonyLedToggle;
#X connect 3 0 0 0;
#X connect 3 1 23 0;
#X connect 3 2 170 0;
#X connect 3 3 103 0;
#X connect 4 0 3 0;
#X connect 5 0 95 0;
#X connect 6 0 98 0;
#X connect 7 0 29 0;
#X connect 8 0 36 0;
#X connect 9 0 41 0;
#X connect 10 0 44 0;
#X connect 11 0 50 0;
#X connect 12 0 53 0;
#X connect 13 0 59 0;
#X connect 14 0 62 0;
#X connect 15 0 68 0;
#X connect 16 0 71 0;
#X connect 17 0 77 0;
#X connect 18 0 80 0;
#X connect 19 0 86 0;
#X connect 20 0 89 0;
#X connect 23 0 32 0;
#X connect 24 0 25 0;
#X connect 24 0 26 0;
#X connect 26 0 23 0;
#X connect 26 1 23 1;
#X connect 27 0 32 1;
#X connect 28 0 21 0;
#X connect 29 0 22 0;
#X connect 29 1 28 0;
#X connect 29 2 31 0;
#X connect 31 0 30 0;
#X connect 32 0 188 0;
#X connect 33 0 32 2;
#X connect 36 0 22 0;
#X connect 36 1 28 0;
#X connect 36 2 38 0;
#X connect 38 0 37 0;
#X connect 41 0 40 0;
#X connect 41 1 47 0;
#X connect 41 2 43 0;
#X connect 43 0 42 0;
#X connect 44 0 40 0;
#X connect 44 1 47 0;
#X connect 44 2 46 0;
#X connect 46 0 45 0;
#X connect 47 0 39 0;
#X connect 50 0 49 0;
#X connect 50 1 56 0;
#X connect 50 2 52 0;
#X connect 52 0 51 0;
#X connect 53 0 49 0;
#X connect 53 1 56 0;
#X connect 53 2 55 0;
#X connect 55 0 54 0;
#X connect 56 0 48 0;
#X connect 59 0 58 0;
#X connect 59 1 65 0;
#X connect 59 2 61 0;
#X connect 61 0 60 0;
#X connect 62 0 58 0;
#X connect 62 1 65 0;
#X connect 62 2 64 0;
#X connect 64 0 63 0;
#X connect 65 0 57 0;
#X connect 68 0 67 0;
#X connect 68 1 74 0;
#X connect 68 2 70 0;
#X connect 70 0 69 0;
#X connect 71 0 67 0;
#X connect 71 1 74 0;
#X connect 71 2 73 0;
#X connect 73 0 72 0;
#X connect 74 0 66 0;
#X connect 77 0 76 0;
#X connect 77 1 83 0;
#X connect 77 2 79 0;
#X connect 79 0 78 0;
#X connect 80 0 76 0;
#X connect 80 1 83 0;
#X connect 80 2 82 0;
#X connect 82 0 81 0;
#X connect 83 0 75 0;
#X connect 86 0 85 0;
#X connect 86 1 92 0;
#X connect 86 2 88 0;
#X connect 88 0 87 0;
#X connect 89 0 85 0;
#X connect 89 1 92 0;
#X connect 89 2 91 0;
#X connect 91 0 90 0;
#X connect 92 0 84 0;
#X connect 95 0 94 0;
#X connect 95 1 101 0;
#X connect 95 2 97 0;
#X connect 97 0 96 0;
#X connect 98 0 94 0;
#X connect 98 1 101 0;
#X connect 98 2 100 0;
#X connect 100 0 99 0;
#X connect 101 0 93 0;
#X connect 103 0 162 0;
#X connect 106 0 187 0;
#X connect 106 1 310 0;
#X connect 108 0 346 0;
#X connect 108 1 308 1;
#X connect 109 0 170 0;
#X connect 111 0 112 0;
#X connect 112 0 103 0;
#X connect 112 1 103 1;
#X connect 113 0 170 0;
#X connect 114 0 103 0;
#X connect 115 0 170 1;
#X connect 116 0 214 0;
#X connect 117 0 116 1;
#X connect 118 0 120 0;
#X connect 119 0 120 0;
#X connect 120 0 314 0;
#X connect 120 0 369 0;
#X connect 120 1 313 0;
#X connect 122 0 123 0;
#X connect 123 0 124 0;
#X connect 124 0 121 1;
#X connect 125 0 126 0;
#X connect 126 0 127 0;
#X connect 126 1 128 0;
#X connect 127 0 123 1;
#X connect 128 0 123 1;
#X connect 130 0 131 0;
#X connect 131 0 132 0;
#X connect 132 0 129 1;
#X connect 133 0 134 0;
#X connect 134 0 136 0;
#X connect 134 1 135 0;
#X connect 135 0 131 1;
#X connect 136 0 131 1;
#X connect 137 0 138 0;
#X connect 138 0 139 0;
#X connect 139 0 144 1;
#X connect 140 0 141 0;
#X connect 141 0 143 0;
#X connect 141 1 142 0;
#X connect 142 0 138 1;
#X connect 143 0 138 1;
#X connect 145 0 146 0;
#X connect 146 0 151 1;
#X connect 147 0 148 0;
#X connect 148 0 150 0;
#X connect 148 1 149 0;
#X connect 149 0 145 1;
#X connect 150 0 145 1;
#X connect 152 0 145 0;
#X connect 153 0 103 0;
#X connect 154 0 155 1;
#X connect 155 0 156 0;
#X connect 156 0 157 0;
#X connect 157 0 110 0;
#X connect 157 1 190 0;
#X connect 159 0 103 1;
#X connect 160 0 190 0;
#X connect 160 1 158 0;
#X connect 161 0 162 1;
#X connect 162 0 165 0;
#X connect 163 0 164 0;
#X connect 164 0 170 0;
#X connect 164 1 170 1;
#X connect 165 0 160 0;
#X connect 167 0 120 0;
#X connect 168 0 121 0;
#X connect 169 0 129 0;
#X connect 170 0 155 0;
#X connect 172 0 178 1;
#X connect 173 0 174 1;
#X connect 174 0 175 0;
#X connect 175 0 183 0;
#X connect 175 1 186 0;
#X connect 177 0 180 0;
#X connect 178 0 172 0;
#X connect 178 0 171 0;
#X connect 179 0 176 0;
#X connect 180 0 174 0;
#X connect 180 1 151 0;
#X connect 180 2 152 0;
#X connect 180 3 144 0;
#X connect 180 4 137 0;
#X connect 180 5 169 0;
#X connect 180 6 130 0;
#X connect 180 7 168 0;
#X connect 180 8 122 0;
#X connect 180 9 178 0;
#X connect 180 10 181 0;
#X connect 182 0 179 1;
#X connect 183 0 179 0;
#X connect 185 0 178 1;
#X connect 186 0 184 0;
#X connect 187 0 212 0;
#X connect 187 1 195 0;
#X connect 188 0 106 0;
#X connect 191 0 193 0;
#X connect 191 1 192 1;
#X connect 192 0 194 0;
#X connect 193 0 192 0;
#X connect 194 0 190 1;
#X connect 196 0 191 0;
#X connect 197 0 116 0;
#X connect 198 0 215 0;
#X connect 199 0 226 0;
#X connect 200 0 240 0;
#X connect 201 0 252 0;
#X connect 202 0 264 0;
#X connect 203 0 276 0;
#X connect 204 0 288 0;
#X connect 205 0 209 0;
#X connect 205 1 206 1;
#X connect 206 0 207 0;
#X connect 207 0 213 1;
#X connect 208 0 205 0;
#X connect 209 0 206 0;
#X connect 210 0 116 1;
#X connect 210 0 211 0;
#X connect 212 0 180 0;
#X connect 212 1 213 0;
#X connect 214 0 116 1;
#X connect 214 0 120 0;
#X connect 215 0 217 0;
#X connect 216 0 215 1;
#X connect 217 0 215 1;
#X connect 217 0 223 0;
#X connect 219 0 215 1;
#X connect 219 0 218 0;
#X connect 220 0 167 0;
#X connect 221 0 223 0;
#X connect 222 0 223 0;
#X connect 223 0 234 0;
#X connect 223 0 341 0;
#X connect 223 1 233 0;
#X connect 224 0 223 0;
#X connect 225 0 224 0;
#X connect 226 0 232 0;
#X connect 227 0 226 1;
#X connect 228 0 230 0;
#X connect 229 0 230 0;
#X connect 230 0 235 0;
#X connect 230 0 373 0;
#X connect 230 1 236 0;
#X connect 231 0 230 0;
#X connect 232 0 226 1;
#X connect 232 0 230 0;
#X connect 237 0 231 0;
#X connect 238 0 226 1;
#X connect 238 0 239 0;
#X connect 240 0 246 0;
#X connect 241 0 240 1;
#X connect 242 0 244 0;
#X connect 243 0 244 0;
#X connect 244 0 250 0;
#X connect 244 0 381 0;
#X connect 244 1 251 0;
#X connect 245 0 244 0;
#X connect 246 0 240 1;
#X connect 246 0 244 0;
#X connect 247 0 240 1;
#X connect 247 0 248 0;
#X connect 249 0 245 0;
#X connect 252 0 258 0;
#X connect 253 0 252 1;
#X connect 254 0 256 0;
#X connect 255 0 256 0;
#X connect 256 0 262 0;
#X connect 256 0 390 0;
#X connect 256 1 263 0;
#X connect 257 0 256 0;
#X connect 258 0 252 1;
#X connect 258 0 256 0;
#X connect 259 0 252 1;
#X connect 259 0 260 0;
#X connect 261 0 257 0;
#X connect 264 0 275 0;
#X connect 265 0 264 1;
#X connect 266 0 268 0;
#X connect 267 0 268 0;
#X connect 268 0 273 0;
#X connect 268 0 398 0;
#X connect 268 1 274 0;
#X connect 269 0 268 0;
#X connect 270 0 264 1;
#X connect 270 0 271 0;
#X connect 272 0 269 0;
#X connect 275 0 264 1;
#X connect 275 0 268 0;
#X connect 276 0 282 0;
#X connect 277 0 276 1;
#X connect 278 0 280 0;
#X connect 279 0 280 0;
#X connect 280 0 286 0;
#X connect 280 0 407 0;
#X connect 280 1 287 0;
#X connect 281 0 280 0;
#X connect 282 0 276 1;
#X connect 282 0 280 0;
#X connect 283 0 276 1;
#X connect 283 0 284 0;
#X connect 285 0 281 0;
#X connect 288 0 294 0;
#X connect 289 0 288 1;
#X connect 290 0 292 0;
#X connect 291 0 292 0;
#X connect 292 0 298 0;
#X connect 292 0 416 0;
#X connect 292 1 299 0;
#X connect 293 0 292 0;
#X connect 294 0 288 1;
#X connect 294 0 292 0;
#X connect 295 0 288 1;
#X connect 295 0 296 0;
#X connect 297 0 293 0;
#X connect 300 0 309 0;
#X connect 301 0 300 0;
#X connect 303 0 307 0;
#X connect 304 0 303 0;
#X connect 305 0 306 0;
#X connect 305 0 312 0;
#X connect 307 0 302 1;
#X connect 308 0 302 0;
#X connect 309 0 308 0;
#X connect 309 1 304 0;
#X connect 309 2 303 1;
#X connect 310 0 108 0;
#X connect 312 0 120 0;
#X connect 312 1 120 1;
#X connect 315 0 223 0;
#X connect 315 1 223 1;
#X connect 317 0 315 0;
#X connect 317 0 316 0;
#X connect 318 0 230 0;
#X connect 318 1 230 1;
#X connect 319 0 318 0;
#X connect 319 0 320 0;
#X connect 321 0 244 0;
#X connect 321 1 244 1;
#X connect 322 0 321 0;
#X connect 322 0 323 0;
#X connect 324 0 256 0;
#X connect 324 1 256 1;
#X connect 325 0 324 0;
#X connect 325 0 326 0;
#X connect 327 0 268 0;
#X connect 327 1 268 1;
#X connect 328 0 327 0;
#X connect 328 0 329 0;
#X connect 330 0 280 0;
#X connect 330 1 280 1;
#X connect 331 0 330 0;
#X connect 331 0 332 0;
#X connect 333 0 292 0;
#X connect 333 1 292 1;
#X connect 334 0 333 0;
#X connect 334 0 335 0;
#X connect 337 0 338 1;
#X connect 337 0 336 0;
#X connect 338 0 336 0;
#X connect 340 0 339 0;
#X connect 341 0 340 0;
#X connect 341 1 337 0;
#X connect 342 0 343 0;
#X connect 343 0 344 0;
#X connect 344 0 350 0;
#X connect 346 0 301 0;
#X connect 346 1 300 1;
#X connect 346 2 347 0;
#X connect 349 0 344 0;
#X connect 350 0 344 1;
#X connect 350 1 351 0;
#X connect 351 0 352 0;
#X connect 352 0 357 0;
#X connect 352 1 354 0;
#X connect 352 2 353 1;
#X connect 353 0 355 0;
#X connect 354 0 353 0;
#X connect 355 0 356 1;
#X connect 357 0 356 0;
#X connect 358 0 359 0;
#X connect 359 0 336 0;
#X connect 359 1 338 1;
#X connect 361 0 362 1;
#X connect 361 0 367 0;
#X connect 362 0 367 0;
#X connect 364 0 367 0;
#X connect 364 1 362 1;
#X connect 365 0 363 0;
#X connect 366 0 364 0;
#X connect 366 0 425 0;
#X connect 369 0 365 0;
#X connect 369 1 361 0;
#X connect 370 0 371 1;
#X connect 370 0 423 0;
#X connect 371 0 423 0;
#X connect 373 0 375 0;
#X connect 373 1 370 0;
#X connect 374 0 423 0;
#X connect 374 1 371 1;
#X connect 375 0 372 0;
#X connect 376 0 374 0;
#X connect 378 0 379 1;
#X connect 378 0 385 0;
#X connect 379 0 385 0;
#X connect 381 0 383 0;
#X connect 381 1 378 0;
#X connect 382 0 385 0;
#X connect 382 1 379 1;
#X connect 383 0 380 0;
#X connect 384 0 382 0;
#X connect 387 0 388 1;
#X connect 387 0 394 0;
#X connect 388 0 394 0;
#X connect 390 0 392 0;
#X connect 390 1 387 0;
#X connect 391 0 394 0;
#X connect 391 1 388 1;
#X connect 392 0 389 0;
#X connect 393 0 391 0;
#X connect 395 0 396 1;
#X connect 395 0 403 0;
#X connect 396 0 403 0;
#X connect 398 0 400 0;
#X connect 398 1 395 0;
#X connect 399 0 403 0;
#X connect 399 1 396 1;
#X connect 400 0 397 0;
#X connect 401 0 399 0;
#X connect 404 0 405 1;
#X connect 404 0 420 0;
#X connect 405 0 420 0;
#X connect 407 0 409 0;
#X connect 407 1 404 0;
#X connect 408 0 420 0;
#X connect 408 1 405 1;
#X connect 409 0 406 0;
#X connect 410 0 408 0;
#X connect 413 0 414 1;
#X connect 413 0 422 0;
#X connect 414 0 422 0;
#X connect 416 0 418 0;
#X connect 416 1 413 0;
#X connect 417 0 422 0;
#X connect 417 1 414 1;
#X connect 418 0 415 0;
#X connect 419 0 417 0;
#X connect 426 0 362 0;
#X connect 427 0 338 0;
#X connect 428 0 371 0;
#X connect 429 0 379 0;
#X connect 430 0 388 0;
#X connect 431 0 396 0;
#X connect 432 0 405 0;
#X connect 433 0 414 0;
