#N canvas 117 75 1163 669 12;
#X obj 80 511 *~;
#X floatatom 207 401 5 0 1 0 - - -;
#X obj 285 509 *~;
#X text 248 398 feedback;
#N canvas 0 23 1280 751 JD_setdelaytimes 0;
#X obj 91 1336 outlet SDT_delayTimeInMs;
#X obj 508 298 bng 15 250 50 0 empty empty empty 17 7 0 10 -262144
-1 -1;
#X obj 616 302 bng 15 250 50 0 empty empty empty 17 7 0 10 -262144
-1 -1;
#X msg 616 326 1475.41;
#X obj 734 315 bng 15 250 50 0 empty empty empty 17 7 0 10 -262144
-1 -1;
#X obj 150 300 bng 15 250 50 0 empty empty empty 17 7 0 10 -262144
-1 -1;
#X obj 263 302 bng 15 250 50 0 empty empty empty 17 7 0 10 -262144
-1 -1;
#X obj 399 296 bng 15 250 50 0 empty empty empty 17 7 0 10 -262144
-1 -1;
#X obj 858 326 bng 15 250 50 0 empty empty empty 17 7 0 10 -262144
-1 -1;
#X obj 932 303 bng 15 250 50 0 empty empty empty 17 7 0 10 -262144
-1 -1;
#X obj 1063 308 bng 15 250 50 0 empty empty empty 17 7 0 10 -262144
-1 -1;
#X obj 1165 313 bng 15 250 50 0 empty empty empty 17 7 0 10 -262144
-1 -1;
#X obj 1246 314 bng 15 250 50 0 empty empty empty 17 7 0 10 -262144
-1 -1;
#X obj 1384 296 bng 15 250 50 0 empty empty empty 17 7 0 10 -262144
-1 -1;
#X text 1256 272 1/8 punkt;
#X text 1397 271 1/8 triol.;
#X obj 1538 296 bng 15 250 50 0 empty empty empty 17 7 0 10 -262144
-1 -1;
#X obj 1618 292 bng 15 250 50 0 empty empty empty 17 7 0 10 -262144
-1 -1;
#X obj 1756 296 bng 15 250 50 0 empty empty empty 17 7 0 10 -262144
-1 -1;
#X obj 1882 297 bng 15 250 50 0 empty empty empty 17 7 0 10 -262144
-1 -1;
#X obj 1971 302 bng 15 250 50 0 empty empty empty 17 7 0 10 -262144
-1 -1;
#X obj 2066 303 bng 15 250 50 0 empty empty empty 17 7 0 10 -262144
-1 -1;
#X text 2102 273 1/32 triol.;
#X msg 150 324 1967.21;
#X msg 263 328 2950.82;
#X msg 399 324 1311.46;
#X msg 508 321 983.607;
#X msg 734 335 655.738;
#X msg 932 327 737.705;
#X msg 858 350 491.803;
#X msg 1063 332 327.869;
#X msg 1246 333 368.852;
#X msg 1165 331 245.902;
#X msg 1384 320 163.934;
#X msg 1618 315 184.426;
#X msg 1538 320 122.951;
#X msg 1756 320 81.967;
#X msg 1971 330 92.213;
#X msg 1882 321 61.475;
#X msg 2066 332 40.984;
#X obj 64 39 inlet SDT_changeDelayTimeBang;
#X obj 100 100 + 1;
#X obj 64 100 f 1;
#X text 484 71 change delay time on bang.;
#X obj 64 140 moses 18;
#X msg 82 71 1;
#X text 170 176 reset if counter to go back to first delay time;
#X obj 117 177 t f b;
#X obj 118 221 route 1 2 3 4 5 6 7 8 9 10 11 12 13 14 15 16 17 18,
f 244;
#X obj 788 88 loadbang;
#X obj 1149 1231 outlet SDT_delayTimeInWords;
#X obj 118 266 t b b;
#X obj 231 258 t b b;
#X obj 366 268 t b b;
#X obj 476 265 t b b;
#X obj 584 268 t b b;
#X obj 702 292 t b b;
#X obj 826 297 t b b;
#X obj 900 275 t b b;
#X obj 1031 277 t b b;
#X obj 1133 288 t b b;
#X obj 1214 267 t b b;
#X obj 1352 266 t b b;
#X obj 1506 264 t b b;
#X obj 1586 265 t b b;
#X obj 1724 267 t b b;
#X obj 1850 268 t b b;
#X obj 1939 271 t b b;
#X obj 2034 268 t b b;
#X msg 118 1105 symbol 1/1;
#X msg 231 1083 symbol 1/1_punkt.;
#X msg 366 1045 symbol 1/1_triol.;
#X msg 493 1008 symbol 1/2;
#X msg 584 965 symbol 1/2_punkt.;
#X msg 702 928 symbol 1/2_triol.;
#X msg 826 881 symbol 1/4;
#X msg 900 843 symbol 1/4_punkt.;
#X msg 1031 811 symbol 1/4_triol.;
#X msg 1133 774 symbol 1/8;
#X msg 1214 742 symbol 1/8_punkt.;
#X msg 1352 698 symbol 1/8_triol.;
#X msg 1506 655 symbol 1/16;
#X msg 1586 619 symbol 1/16_punkt.;
#X msg 1724 578 symbol 1/16_triol.;
#X msg 1850 536 symbol 1/32;
#X msg 1939 511 symbol 1/32_punkt.;
#X msg 2034 482 symbol 1/32_triol.;
#X msg 749 130 8;
#X connect 1 0 26 0;
#X connect 2 0 3 0;
#X connect 3 0 0 0;
#X connect 4 0 27 0;
#X connect 5 0 23 0;
#X connect 6 0 24 0;
#X connect 7 0 25 0;
#X connect 8 0 29 0;
#X connect 9 0 28 0;
#X connect 10 0 30 0;
#X connect 11 0 32 0;
#X connect 12 0 31 0;
#X connect 13 0 33 0;
#X connect 16 0 35 0;
#X connect 17 0 34 0;
#X connect 18 0 36 0;
#X connect 19 0 38 0;
#X connect 20 0 37 0;
#X connect 21 0 39 0;
#X connect 23 0 0 0;
#X connect 24 0 0 0;
#X connect 25 0 0 0;
#X connect 26 0 0 0;
#X connect 27 0 0 0;
#X connect 28 0 0 0;
#X connect 29 0 0 0;
#X connect 30 0 0 0;
#X connect 31 0 0 0;
#X connect 32 0 0 0;
#X connect 33 0 0 0;
#X connect 34 0 0 0;
#X connect 35 0 0 0;
#X connect 36 0 0 0;
#X connect 37 0 0 0;
#X connect 38 0 0 0;
#X connect 39 0 0 0;
#X connect 40 0 42 0;
#X connect 41 0 42 1;
#X connect 42 0 41 0;
#X connect 42 0 44 0;
#X connect 44 0 48 0;
#X connect 44 1 47 0;
#X connect 45 0 42 1;
#X connect 47 0 48 0;
#X connect 47 1 45 0;
#X connect 48 0 51 0;
#X connect 48 1 52 0;
#X connect 48 2 53 0;
#X connect 48 3 54 0;
#X connect 48 4 55 0;
#X connect 48 5 56 0;
#X connect 48 6 57 0;
#X connect 48 7 58 0;
#X connect 48 8 59 0;
#X connect 48 9 60 0;
#X connect 48 10 61 0;
#X connect 48 11 62 0;
#X connect 48 12 63 0;
#X connect 48 13 64 0;
#X connect 48 14 65 0;
#X connect 48 15 66 0;
#X connect 48 16 67 0;
#X connect 48 17 68 0;
#X connect 49 0 57 0;
#X connect 49 0 87 0;
#X connect 51 0 69 0;
#X connect 51 1 5 0;
#X connect 52 0 70 0;
#X connect 52 1 6 0;
#X connect 53 0 71 0;
#X connect 53 1 7 0;
#X connect 54 0 72 0;
#X connect 54 1 1 0;
#X connect 55 0 73 0;
#X connect 55 1 2 0;
#X connect 56 0 74 0;
#X connect 56 1 4 0;
#X connect 57 0 75 0;
#X connect 57 1 8 0;
#X connect 58 0 76 0;
#X connect 58 1 9 0;
#X connect 59 0 77 0;
#X connect 59 1 10 0;
#X connect 60 0 78 0;
#X connect 60 1 11 0;
#X connect 61 0 79 0;
#X connect 61 1 12 0;
#X connect 62 0 80 0;
#X connect 62 1 13 0;
#X connect 63 0 81 0;
#X connect 63 1 16 0;
#X connect 64 0 82 0;
#X connect 64 1 17 0;
#X connect 65 0 83 0;
#X connect 65 1 18 0;
#X connect 66 0 84 0;
#X connect 66 1 19 0;
#X connect 67 0 85 0;
#X connect 67 1 20 0;
#X connect 68 0 86 0;
#X connect 68 1 21 0;
#X connect 69 0 50 0;
#X connect 70 0 50 0;
#X connect 71 0 50 0;
#X connect 72 0 50 0;
#X connect 73 0 50 0;
#X connect 74 0 50 0;
#X connect 75 0 50 0;
#X connect 76 0 50 0;
#X connect 77 0 50 0;
#X connect 78 0 50 0;
#X connect 79 0 50 0;
#X connect 80 0 50 0;
#X connect 81 0 50 0;
#X connect 82 0 50 0;
#X connect 83 0 50 0;
#X connect 84 0 50 0;
#X connect 85 0 50 0;
#X connect 86 0 50 0;
#X connect 87 0 42 1;
#X restore 701 371 pd JD_setdelaytimes;
#X floatatom 701 395 5 0 0 0 - - -;
#N canvas 114 23 1003 482 JD_dryWetManagement 0;
#X obj 57 60 inlet~ DWM_audioInLeft;
#X obj 257 60 inlet~ DWM_audioInRight;
#X obj 551 229 *~;
#X obj 57 235 *~;
#X obj 523 61 inlet DWM_dryWetValue;
#X obj 523 103 - 1;
#X floatatom 523 161 5 0 0 0 - - -;
#X obj 523 133 * -1;
#X floatatom 643 169 5 0 0 0 - - -;
#X obj 57 283 outlet~ DWM_audioOutDryLeft;
#X obj 257 229 *~;
#X text 562 160 dry;
#X text 686 171 wet;
#X obj 257 285 outlet~ DWM_audioOutDryRight;
#X obj 666 234 *~;
#X obj 551 286 outlet~ DWM_audioOutWetLeft;
#X obj 761 286 outlet~ DWM_audioOutWetLeft;
#X connect 0 0 3 0;
#X connect 0 0 2 0;
#X connect 1 0 10 0;
#X connect 1 0 14 0;
#X connect 2 0 15 0;
#X connect 3 0 9 0;
#X connect 4 0 5 0;
#X connect 4 0 8 0;
#X connect 5 0 7 0;
#X connect 6 0 3 1;
#X connect 6 0 10 1;
#X connect 7 0 6 0;
#X connect 8 0 2 1;
#X connect 8 0 14 1;
#X connect 10 0 13 0;
#X connect 14 0 16 0;
#X restore 22 286 pd JD_dryWetManagement;
#X obj 701 419 delay-time-syncer;
#X obj 701 492 sig~;
#X floatatom 701 466 5 0 0 0 - - -;
#X obj 122 331 delwrite~ \$0-delayLeft 3000;
#X obj 210 288 delwrite~ \$0-delayRight 3000;
#X obj 22 52 inlet~ JD_audioInLeft;
#X obj 250 52 inlet~ JD_audioInRight;
#X obj 80 479 vd~ \$0-delayLeft;
#X obj 285 480 vd~ \$0-delayRight;
#X obj 22 609 outlet~ JD_audioOutLeft;
#X obj 205 609 outlet~ JD_audioOutRight;
#X obj 620 52 inlet JD_metronomeBang;
#X obj 301 119 cnv 15 218 140 empty empty empty 20 12 0 14 -228856
-66577 0;
#X obj 348 138 hsl 128 15 0 1 0 1 empty empty dry/wet -2 -8 0 10 -257985
-1 -1 0 1;
#X obj 346 185 hsl 128 15 0 1 0 1 empty empty feedback -2 -8 0 10 -257985
-1 -1 8000 1;
#X symbolatom 371 220 15 0 0 0 - - -;
#X obj 343 219 bng 20 250 50 0 empty empty empty 17 7 0 10 -262130
-1 -1;
#X obj 574 181 cnv 15 120 30 empty \$1-delay-time 1/4_triol. 20 12
0 14 -233017 -66577 0;
#X obj 913 26 loadbang;
#X obj 928 62 bng 15 250 50 0 empty empty empty 17 7 0 10 -262144 -1
-1;
#X obj 913 105 \$0;
#X floatatom 913 129 5 0 0 0 - - -;
#X text 972 112 give canvas for showing \; the delay time a unique
\; receive symbol name.;
#X obj 890 235 t a a;
#X text 930 391 send newly selected delay time \; to unique canvas-receive-symbol
;
#X msg 831 470 \; \$1-delay-time label hallo;
#X obj 843 172 makefilename %d;
#X msg 938 291 \; \$1-delay-time receive \$1;
#X obj 824 49 inlet JD_dwSliderValue;
#X obj 824 81 s \$0-dwSlider;
#X obj 345 78 r \$0-dwSlider;
#X obj 1004 82 s \$0-fbSlider;
#X obj 1004 50 inlet JD_fbSliderValue;
#X obj 451 77 r \$0-fbSlider;
#X connect 0 0 10 0;
#X connect 1 0 0 1;
#X connect 1 0 2 1;
#X connect 2 0 11 0;
#X connect 4 0 5 0;
#X connect 4 1 22 0;
#X connect 5 0 7 0;
#X connect 6 0 16 0;
#X connect 6 1 17 0;
#X connect 6 2 10 0;
#X connect 6 3 11 0;
#X connect 7 0 9 0;
#X connect 8 0 14 0;
#X connect 8 0 15 0;
#X connect 9 0 8 0;
#X connect 12 0 6 0;
#X connect 13 0 6 1;
#X connect 14 0 0 0;
#X connect 14 0 16 0;
#X connect 15 0 2 0;
#X connect 15 0 17 0;
#X connect 18 0 7 1;
#X connect 20 0 6 2;
#X connect 21 0 1 0;
#X connect 23 0 4 0;
#X connect 26 0 27 0;
#X connect 27 0 28 0;
#X connect 28 0 33 0;
#X connect 33 0 32 0;
#X connect 35 0 36 0;
#X connect 37 0 20 0;
#X connect 39 0 38 0;
#X connect 40 0 21 0;
#X coords 0 -1 1 1 220 160 1 300 100;
