#N canvas 114 186 969 571 10;
#X obj 532 30 hsl 128 15 0 1 0 0 empty empty empty -2 -8 0 10 -262144
-1 -1 0 1;
#X obj 383 30 inlet LVV_sliderValue;
#N canvas 47 109 752 577 MY_RSP_launchpad_rightButtonsSliderValue 0
;
#X obj 80 33 inlet MRSP_LRBSL_sliderValue;
#X floatatom 80 96 5 0 0 0 - - -;
#X text 245 68 slider value;
#X obj 80 117 * 8;
#X text 114 149 number of exisiting leds;
#X obj 80 214 int;
#X floatatom 80 138 5 0 0 0 - - -;
#X floatatom 80 187 5 0 0 0 - - -;
#X floatatom 80 265 5 0 0 0 - - -;
#X obj 80 166 + 0.5;
#X obj 80 284 until;
#X obj 80 330 f 1;
#X obj 80 241 t f b, f 12;
#X msg 149 275 1;
#X obj 115 330 + 1;
#X msg 185 548 1;
#X text 228 544 loadbang;
#X obj 185 502 loadbang;
#X msg 132 547 127;
#X obj 80 578 noteout, f 18;
#X msg 80 390 8;
#X msg 111 390 24;
#X msg 142 390 40;
#X msg 173 391 56;
#X msg 204 390 72;
#X msg 240 389 88;
#X msg 274 389 104;
#X msg 308 388 120;
#X text 332 69 0...1;
#X text 345 386 light up x round buttons on the right hand side;
#X obj 80 359 route 8 7 6 5 4 3 2 1, f 42;
#X msg 465 558 1;
#X text 508 554 loadbang;
#X obj 465 512 loadbang;
#X obj 360 588 noteout, f 18;
#X msg 412 557 0;
#X msg 340 470 8;
#X msg 371 470 24;
#X msg 402 470 40;
#X msg 433 471 56;
#X msg 464 470 72;
#X msg 500 469 88;
#X msg 534 469 104;
#X msg 568 468 120;
#X obj 340 433 r \$0-LVV_turnOffAll;
#X obj 80 74 t f b, f 18;
#X obj 185 104 s \$0-LVV_turnOffAll;
#X obj 185 523 t f f;
#X obj 465 533 t f f;
#X connect 0 0 45 0;
#X connect 1 0 3 0;
#X connect 3 0 6 0;
#X connect 5 0 12 0;
#X connect 6 0 9 0;
#X connect 7 0 5 0;
#X connect 8 0 10 0;
#X connect 9 0 7 0;
#X connect 10 0 11 0;
#X connect 11 0 14 0;
#X connect 11 0 30 0;
#X connect 12 0 8 0;
#X connect 12 1 13 0;
#X connect 13 0 11 1;
#X connect 14 0 11 1;
#X connect 15 0 19 2;
#X connect 17 0 47 0;
#X connect 18 0 19 1;
#X connect 20 0 19 0;
#X connect 21 0 19 0;
#X connect 22 0 19 0;
#X connect 23 0 19 0;
#X connect 24 0 19 0;
#X connect 25 0 19 0;
#X connect 26 0 19 0;
#X connect 27 0 19 0;
#X connect 30 0 20 0;
#X connect 30 1 21 0;
#X connect 30 2 22 0;
#X connect 30 3 23 0;
#X connect 30 4 24 0;
#X connect 30 5 25 0;
#X connect 30 6 26 0;
#X connect 30 7 27 0;
#X connect 31 0 34 2;
#X connect 33 0 35 0;
#X connect 33 0 48 0;
#X connect 35 0 34 1;
#X connect 36 0 34 0;
#X connect 37 0 34 0;
#X connect 38 0 34 0;
#X connect 39 0 34 0;
#X connect 40 0 34 0;
#X connect 41 0 34 0;
#X connect 42 0 34 0;
#X connect 43 0 34 0;
#X connect 44 0 36 0;
#X connect 44 0 37 0;
#X connect 44 0 38 0;
#X connect 44 0 39 0;
#X connect 44 0 40 0;
#X connect 44 0 41 0;
#X connect 44 0 42 0;
#X connect 44 0 43 0;
#X connect 45 0 1 0;
#X connect 45 1 46 0;
#X connect 47 0 18 0;
#X connect 47 1 15 0;
#X connect 48 0 35 0;
#X connect 48 1 31 0;
#X restore 383 78 pd MY_RSP_launchpad_rightButtonsSliderValue;
#N canvas 0 50 833 578 MY_RSP_blinkButtons 0;
#X obj 67 2 notein, f 11;
#X text 272 150 remember button (old button);
#X obj 58 508 noteout, f 35;
#X obj 58 287 r harmonyLedToggle;
#X obj 58 315 route 1, f 47;
#X obj 58 349 t b b;
#X msg 85 379 127;
#X obj 337 340 t b b;
#X msg 364 370 0;
#X obj 67 61 stripnote;
#X text 146 54 note \, velocity;
#X obj 58 432 f 0;
#X obj 337 427 f 0;
#X obj 67 172 s \$0-MRSP_BB_newNoteToBlink;
#X obj 130 29 s \$0-MRSP_BB_channel;
#X obj 265 477 r \$0-MRSP_BB_channel;
#X obj 352 403 r \$0-MRSP_BB_newNoteToBlink;
#X obj 73 410 r \$0-MRSP_BB_newNoteToBlink;
#X obj 67 93 t f f b;
#X obj 86 150 s \$0-MRSP_BB_newNoteToRemember;
#X obj 106 129 s \$0-MRSP_BB_turnOffOldNote;
#X obj 458 308 noteout, f 35;
#X obj 665 277 r \$0-MRSP_BB_channel;
#X obj 458 262 f 0;
#X obj 473 234 r \$0-MRSP_BB_newNoteToRemember;
#X obj 458 186 r \$0-MRSP_BB_turnOffOldNote;
#X obj 458 207 t b b, f 18;
#X msg 561 266 0;
#X text 681 212 turn off old button;
#X text 217 284 turn on new button;
#X connect 0 0 9 0;
#X connect 0 1 9 1;
#X connect 0 2 14 0;
#X connect 3 0 4 0;
#X connect 4 0 5 0;
#X connect 4 1 7 0;
#X connect 5 0 11 0;
#X connect 5 1 6 0;
#X connect 6 0 2 1;
#X connect 7 0 12 0;
#X connect 7 1 8 0;
#X connect 8 0 2 1;
#X connect 9 0 18 0;
#X connect 11 0 2 0;
#X connect 12 0 2 0;
#X connect 15 0 2 2;
#X connect 16 0 12 1;
#X connect 17 0 11 1;
#X connect 18 0 13 0;
#X connect 18 1 19 0;
#X connect 18 2 20 0;
#X connect 22 0 21 2;
#X connect 23 0 21 0;
#X connect 24 0 23 1;
#X connect 25 0 26 0;
#X connect 26 0 23 0;
#X connect 26 1 27 0;
#X connect 27 0 21 1;
#X restore 38 39 pd MY_RSP_blinkButtons;
#X connect 1 0 2 0;
