#N canvas -56 59 1280 637 10;
#X obj 524 214 metro;
#X obj 524 84 bng 15 250 50 0 empty empty empty 17 7 0 10 -262144 -1
-1;
#X floatatom 567 216 5 0 0 0 - - -;
#X obj 524 104 tgl 15 0 empty empty empty 17 7 0 10 -262144 -1 -1 0
1;
#X msg 426 519 1;
#X obj 331 575 spigot 0;
#X obj 148 94 notein;
#X floatatom 148 124 5 0 0 0 - - -;
#X floatatom 362 129 5 0 0 0 - - -;
#X obj 133 710 ctlout 60 1;
#X text 300 827 control 60 \, channel 1;
#X obj 346 223 > 0;
#X obj 346 250 sel 1;
#X msg 346 277 1;
#X obj 362 303 print rec wish;
#X obj 325 633 print rec permission;
#X msg 467 520 0;
#X obj 331 519 f 0;
#X obj 394 488 t b b;
#X obj 331 547 sel 1;
#X msg 331 609 1;
#X obj 346 153 sel 47;
#X obj 346 175 bng 15 250 50 0 empty empty empty 17 7 0 10 -262144
-1 -1;
#X msg 346 200 1;
#X obj 148 160 sel 41;
#X obj 148 186 bng 15 250 50 0 empty empty empty 17 7 0 10 -262144
-1 -1;
#X msg 148 206 1;
#X obj 148 233 > 0;
#X obj 148 260 sel 1;
#X msg 148 286 1;
#X obj 191 317 print stop wish;
#X obj 133 599 spigot 0;
#X obj 133 519 f 0;
#X obj 133 547 sel 1;
#X msg 190 568 1;
#X msg 232 569 0;
#X obj 163 478 t b b;
#X msg 133 621 0;
#X obj 158 650 print stop permission;
#X obj 556 320 + 1;
#X obj 524 321 f 1;
#X obj 524 417 bng 15 250 50 0 empty empty empty 17 7 0 10 -262144
-1 -1;
#X msg 539 296 1;
#X obj 644 394 sel 24;
#X obj 644 416 bng 15 250 50 0 empty empty empty 17 7 0 10 -262144
-1 -1;
#X obj 524 142 t f b b f, f 55;
#X obj 524 395 sel 1;
#X obj 588 395 sel 96;
#X obj 585 415 bng 15 250 50 0 empty empty empty 17 7 0 10 -262144
-1 -1;
#X obj 1131 301 select 0 1, f 32;
#X msg 1131 377 252;
#X msg 1225 379 250;
#X obj 1131 489 midiout;
#X msg 1035 438 248;
#X msg 1266 379 252;
#X text 1264 361 stop;
#X obj 551 178 expr 60000/122.0/24;
#X obj 1035 393 sel 0;
#X obj 1035 415 bng 15 250 50 0 empty empty empty 17 7 0 10 -262144
-1 -1;
#X obj 1035 369 % 4;
#X msg 1307 379 252;
#X obj 1225 338 t b b b b, f 21;
#X obj 1348 493 ctlout 61 1;
#X msg 1348 379 1;
#X msg 1171 377 0;
#X obj 1131 335 t b b;
#X text 327 95 record wish from nano pad;
#X text -115 131 stop recording wish from nano pad;
#X text 565 89 start/stop clock;
#X text 1199 244 0 = stop sequencing clock 1 = start playback and sequencing
clock and;
#X text 1063 439 clock for 856;
#X text 1375 366 252 = stop clock \; 250 start clock;
#X text 1223 362 start;
#X text 231 714 control 60 channel 1 \; 1 = start recording \; 0 =
stop recording;
#X text 1324 515 control 61 channel 1 \; 1 = start playback \; 0 =
stop playback;
#X obj 148 26 inlet MF856_startBang;
#X msg 148 49 1;
#X obj 563 709 outlet MF856_firstBeat;
#X obj 644 671 wiringPi_gpio 25 0 0;
#X msg 644 651 0;
#X obj 319 28 inlet MF856_stopBang;
#X msg 319 52 0;
#X obj 518 671 wiringPi_gpio 25 0 0;
#X msg 518 647 1;
#X obj 703 395 sel 0;
#X obj 703 368 % 6;
#X obj 593 487 print 1;
#X obj 524 439 t b b b;
#X obj 703 426 s metroHits;
#X text 698 451 for playback \; synchronisation \; in \; MY_RSP_SelectAndPlayEngineXY
;
#X obj 885 667 s metroWholeBeats;
#X obj 885 476 f 1;
#X msg 903 453 1;
#X obj 885 376 % 24;
#X obj 885 397 == 0;
#X obj 931 480 + 1;
#X obj 885 418 sel 1;
#X obj 885 439 bng 15 250 50 0 empty empty empty 17 7 0 10 -262144
-1 -1;
#X obj 885 507 moses 4;
#X obj 924 530 t b b;
#X msg 924 553 1;
#X msg 885 552 0;
#X text 743 370 16th notes;
#X connect 0 0 40 0;
#X connect 1 0 3 0;
#X connect 3 0 45 0;
#X connect 4 0 5 1;
#X connect 5 0 20 0;
#X connect 6 0 7 0;
#X connect 6 2 8 0;
#X connect 7 0 21 0;
#X connect 7 0 24 0;
#X connect 11 0 12 0;
#X connect 12 0 13 0;
#X connect 13 0 14 0;
#X connect 13 0 17 1;
#X connect 16 0 5 1;
#X connect 16 0 17 1;
#X connect 17 0 19 0;
#X connect 18 0 17 0;
#X connect 18 1 4 0;
#X connect 19 0 5 0;
#X connect 20 0 15 0;
#X connect 20 0 9 0;
#X connect 21 0 22 0;
#X connect 22 0 23 0;
#X connect 23 0 11 0;
#X connect 24 0 25 0;
#X connect 25 0 26 0;
#X connect 26 0 27 0;
#X connect 27 0 28 0;
#X connect 28 0 29 0;
#X connect 29 0 30 0;
#X connect 29 0 32 1;
#X connect 31 0 37 0;
#X connect 32 0 33 0;
#X connect 33 0 31 0;
#X connect 34 0 31 1;
#X connect 35 0 31 1;
#X connect 35 0 32 1;
#X connect 36 0 32 0;
#X connect 36 1 34 0;
#X connect 37 0 38 0;
#X connect 37 0 9 0;
#X connect 39 0 40 1;
#X connect 40 0 39 0;
#X connect 40 0 43 0;
#X connect 40 0 46 0;
#X connect 40 0 47 0;
#X connect 40 0 59 0;
#X connect 40 0 85 0;
#X connect 40 0 93 0;
#X connect 41 0 87 0;
#X connect 41 0 86 0;
#X connect 42 0 40 1;
#X connect 43 0 44 0;
#X connect 44 0 35 0;
#X connect 44 0 16 0;
#X connect 44 0 79 0;
#X connect 45 0 0 0;
#X connect 45 1 56 0;
#X connect 45 2 42 0;
#X connect 45 3 49 0;
#X connect 46 0 41 0;
#X connect 47 0 48 0;
#X connect 48 0 42 0;
#X connect 49 0 65 0;
#X connect 49 1 61 0;
#X connect 50 0 52 0;
#X connect 51 0 52 0;
#X connect 53 0 52 0;
#X connect 54 0 52 0;
#X connect 56 0 0 1;
#X connect 56 0 2 0;
#X connect 57 0 58 0;
#X connect 58 0 53 0;
#X connect 59 0 57 0;
#X connect 60 0 52 0;
#X connect 61 0 51 0;
#X connect 61 1 54 0;
#X connect 61 2 60 0;
#X connect 61 3 63 0;
#X connect 63 0 62 0;
#X connect 64 0 62 0;
#X connect 65 0 50 0;
#X connect 65 1 64 0;
#X connect 75 0 76 0;
#X connect 76 0 45 0;
#X connect 79 0 78 0;
#X connect 80 0 81 0;
#X connect 81 0 45 0;
#X connect 83 0 82 0;
#X connect 84 0 88 0;
#X connect 85 0 84 0;
#X connect 87 0 18 0;
#X connect 87 0 36 0;
#X connect 87 1 83 0;
#X connect 87 2 77 0;
#X connect 91 0 95 0;
#X connect 91 0 98 0;
#X connect 92 0 91 1;
#X connect 93 0 94 0;
#X connect 94 0 96 0;
#X connect 95 0 91 1;
#X connect 96 0 97 0;
#X connect 97 0 91 0;
#X connect 98 0 101 0;
#X connect 98 1 99 0;
#X connect 99 0 100 0;
#X connect 99 1 92 0;
#X connect 100 0 90 0;
#X connect 101 0 90 0;
