#N canvas 770 241 450 300 10;
#X obj 30 88 route value update;
#X floatatom 30 108 5 0 0 0 - - -;
#X obj 30 158 / 100;
#X obj 30 137 t f f;
#X obj 82 200 s MY_RSPEC_masterButtonReset;
#X obj 82 176 f 0;
#X obj 30 34 inlet VOU_valueOrUpdateWish;
#X obj 30 261 outlet VOU_value;
#X obj 30 55 list trim;
#X obj 82 111 bng 15 250 50 0 empty empty empty 17 7 0 10 -262144 -1
-1;
#X connect 0 0 1 0;
#X connect 0 1 9 0;
#X connect 1 0 3 0;
#X connect 2 0 7 0;
#X connect 3 0 2 0;
#X connect 3 1 5 1;
#X connect 5 0 4 0;
#X connect 6 0 8 0;
#X connect 8 0 0 0;
#X connect 9 0 5 0;
